<?xml version="1.0" encoding="utf-8"?>
<svg xmlns="http://www.w3.org/2000/svg" width="189.619" height="191.972" viewBox="0 0 800 282.393">
<path
d="M 758.17717,491.13189 L 600.83007,527.44893 C 536.99259,537.33823 479.7536,546.16013 419.24912,546.16013 C 115.52007,546.15591 0,322.76902 0,147.78656 C 0,-65.711031 163.95825,-263.76713 444.57569,-263.76713 C 503.9959,-263.76713 561.20535,-254.95788 612.93012,-240.6513 C 695.46616,-217.5186 733.97284,-188.92653 758.17717,-172.42185 L 666.83611,-85.468541 L 628.32942,-76.701491 L 655.85831,-120.73927 C 618.46122,-157.01833 550.16848,-224.14663 420.36715,-224.14663 C 246.49006,-224.14663 115.52428,-92.071261 115.52428,100.5086 C 115.52428,307.36128 265.18861,502.13079 505.07596,502.13079 C 575.53725,502.13079 611.82475,487.83686 644.82144,474.623 L 644.82144,297.44244 L 478.68198,306.24747 L 566.69003,258.93154 L 799.99998,258.93154 L 771.41213,286.43933 C 763.68295,293.04626 762.60289,295.25701 760.37948,304.02406 C 759.26567,313.96399 758.18561,345.86797 758.18561,356.85843 L 758.18561,491.13189 L 758.17717,491.13189 z"
fill="#0860a8"/>
</svg>