<?xml version="1.0" encoding="UTF-8" standalone="no"?>
<!-- Created with Inkscape (http://www.inkscape.org/) -->

<svg
   xmlns:dc="http://purl.org/dc/elements/1.1/"
   xmlns:cc="http://creativecommons.org/ns#"
   xmlns:rdf="http://www.w3.org/1999/02/22-rdf-syntax-ns#"
   xmlns:svg="http://www.w3.org/2000/svg"
   xmlns="http://www.w3.org/2000/svg"
   xmlns:sodipodi="http://sodipodi.sourceforge.net/DTD/sodipodi-0.dtd"
   xmlns:inkscape="http://www.inkscape.org/namespaces/inkscape"
   version="1.1"
   x="0"
   y="0"
   width="275"
   height="225"
   viewBox="0 0 275 225"
   id="svg3060"
   inkscape:version="0.48.0 r9654"
   sodipodi:docname="dpma-logo-small.svg">

  <sodipodi:namedview
     pagecolor="#ffffff"
     bordercolor="#666666"
     borderopacity="1"
     objecttolerance="10"
     gridtolerance="10"
     guidetolerance="10"
     inkscape:pageopacity="0"
     inkscape:pageshadow="2"
     inkscape:window-width="1340"
     inkscape:window-height="878"
     id="namedview3091"
     showgrid="false"
     inkscape:zoom="1"
     inkscape:cx="116.73482"
     inkscape:cy="39.259949"
     inkscape:window-x="100"
     inkscape:window-y="0"
     inkscape:window-maximized="1"
     inkscape:current-layer="layer1">
    <inkscape:grid
       type="xygrid"
       id="grid3097"
       empspacing="5"
       visible="true"
       enabled="true"
       snapvisiblegridlinesonly="true" />
  </sodipodi:namedview>

    <metadata id="metadata3095">
        <rdf:RDF>
            <cc:Work rdf:about="">
                <dc:format>image/svg+xml</dc:format>
                <dc:type rdf:resource="http://purl.org/dc/dcmitype/StillImage" />
            </cc:Work>
        </rdf:RDF>
    </metadata>

    <defs id="defs3093" />

    <g
     inkscape:groupmode="layer"
     id="layer1"
     inkscape:label="Layer"
     >
        <g id="bundesadler">
          <path
             d="m 199.66211,145.9873 c 3.69336,5.45508 9.8125,13.52149 18.48242,20.16211 -12.45117,0 -20.70703,0.29102 -31.24219,-16.36328 l -2.36914,-3.79883 -26.82617,-42.92919 c -1.72851,0.66552 -3.48242,1.28222 -5.26758,1.86669 l 25.65625,41.0625 7.34571,11.75196 c 3.22265,5.13086 10.10547,15.28515 20.35742,23.15039 -12.44336,0 -20.69727,0.2832 -31.23242,-16.3711 L 162.99023,145.9873 139.39648,108.22021 c -2.02148,3.23877 -2.6875,6.07959 -2.6875,8.91163 0,10.43945 4.03516,20.16992 10.21094,28.85546 4.28516,6.02344 9.61914,11.56641 15.32422,16.50977 -0.88476,0.39648 -2.43555,0.54297 -3.87891,0.54297 -2.86523,0 -4.73242,-0.16992 -6.03125,-0.38867 3.23047,7.32812 10.16211,16.80078 13.66016,21.71093 4.5625,-0.81835 11.19336,-1.46093 15.54297,-1.46093 4.54687,0 5.05664,2.65429 5.05664,5.02539 0,4.13086 -1.93164,7.44336 -4.17969,9.27734 -0.83593,-2.15234 -2.54101,-4.95117 -10.93359,-4.95117 1.60742,2.76758 9.29492,8.98437 9.29492,13.99219 0,3.3125 -3.62891,8.27929 -8.42578,8.27929 0.28516,-1.07031 0.24414,-2.06054 0.24414,-2.79101 0,-4.04297 -3.58789,-8.7832 -6.61523,-12.09375 0.0879,0.98047 0.041,0.88281 0.041,2.01953 0,9.58594 -0.86914,13.98633 -6.94922,13.98633 -2.97851,0 -5.03906,-1.63281 -5.74609,-2.11133 3.94531,-3.65234 4.14648,-6.50195 4.14648,-11.88281 l -0.0312,-4.65039 c -0.008,-1.2168 0.0156,-2.84961 0.20313,-4.03516 -2.17578,-0.29883 -3.05274,-0.29102 -4.73242,-0.29102 0,0 -8.64454,-0.68945 -10.72266,3.81446 -2.33789,-2.15821 -5.74609,-5.1875 -5.74609,-8.54688 0,-2.20703 1.04687,-4.71484 5.49609,-4.71484 1.6875,0 6.98828,1.0293 11.42773,1.0293 -1.19336,-2.6543 -6.50976,-10.41211 -11.0957,-16.04688 -0.69922,2.19141 -1.77734,4.5625 -4.18945,6.47852 -0.33203,-3.61328 -2.45899,-15.05664 -8.125,-21.75391 -0.65625,4.51367 -1.54883,9.15625 -1.54883,18.94531 0,23.80664 5.73047,41.38672 17.88086,44.75586 -1.58203,2.76758 -4.92774,5.22656 -8.39258,5.22656 -4.44726,0 -6.86719,-5.04101 -9.3418,-9.77343 -1.2832,3.50781 -4.83789,12.07812 -8.39355,12.07812 -3.56299,0 -7.11816,-8.57031 -8.39258,-12.07812 -2.47558,4.73242 -4.89404,9.77343 -9.34228,9.77343 -3.474125,0 -6.817875,-2.45898 -8.400883,-5.22656 12.158693,-3.36914 17.889163,-20.94922 17.889163,-44.75586 0,-9.78906 -0.89258,-14.43164 -1.5503,-18.94531 -5.66503,6.69727 -7.79199,18.14063 -8.11669,21.75391 -2.410649,-1.91602 -3.498052,-4.28711 -4.196294,-6.47852 -4.59375,5.63477 -9.894043,13.39258 -11.095703,16.04688 4.44043,0 9.740235,-1.0293 11.428711,-1.0293 4.447756,0 5.495116,2.50781 5.495116,4.71484 0,3.35938 -3.40918,6.38867 -5.754882,8.54688 -2.069824,-4.50391 -10.713867,-3.81446 -10.713867,-3.81446 -1.680176,0 -2.557129,-0.008 -4.732422,0.29102 0.187012,1.18555 0.219239,2.81836 0.203125,4.03516 l -0.03271,4.65039 c 0,5.38086 0.194824,8.23047 4.155761,11.88281 -0.722168,0.47852 -2.775879,2.11133 -5.754394,2.11133 -6.07959,0 -6.956055,-4.40039 -6.956055,-13.98633 0,-1.13672 -0.04053,-1.03906 0.04883,-2.01953 -3.027832,3.31055 -6.615234,8.05078 -6.615234,12.09375 0,0.73047 -0.04053,1.7207 0.243164,2.79101 -4.788574,0 -8.424805,-4.96679 -8.424805,-8.27929 0,-5.00782 7.686524,-11.22461 10.137695,-13.95117 -9.236816,-0.041 -10.941406,2.75781 -11.785644,4.91015 -2.240234,-1.83398 -4.171875,-5.14648 -4.171875,-9.27734 0,-2.3711 0.503418,-5.02539 5.048828,-5.02539 4.350586,0 10.989746,0.64258 15.55127,1.46093 3.498535,-4.91015 10.421875,-14.38281 13.660644,-21.71093 -1.298828,0.21875 -3.165527,0.38867 -6.039062,0.38867 -1.436524,0 -2.986817,-0.14649 -3.879883,-0.54297 5.714355,-4.94336 11.046875,-10.48633 15.332519,-16.52539 6.168946,-8.70117 10.210937,-18.40039 10.210937,-28.83984 0,-2.83204 -0.67382,-5.67286 -1.63134,-8.70899 L 77.327636,145.9873 65.752929,164.51855 c -10.535156,16.6543 -18.790039,16.3711 -31.240722,16.3711 10.259277,-7.86524 17.14209,-18.01953 20.364258,-23.15039 l 7.346191,-11.75196 25.656738,-41.0625 c -1.785644,-0.58447 -3.546875,-1.20117 -5.268066,-1.86669 l -26.825684,42.92919 -2.377929,3.79883 c -10.527344,16.6543 -18.782227,16.36328 -31.225098,16.36328 8.652344,-6.64062 14.780273,-14.70703 18.46582,-20.22656 L 42.53955,143.00098 70.898925,97.619629 C 69.283691,96.734863 67.709472,95.801758 66.191406,94.835938 L 42.953125,132.02637 c -4.894043,7.74414 -9.30127,11.81836 -13.863281,13.96093 -5.251465,2.48438 -10.713868,2.41016 -17.369629,2.41016 l 2.962402,-2.41797 C 23.375976,138.5127 29.130371,129.93262 32.084961,125.2334 L 55.915527,87.084473 C 54.51123,85.810059 53.180176,84.51123 51.922363,83.164062 L 35.03125,110.20068 C 24.503906,126.86426 16.249512,126.56348 3.7983398,126.56348 14.13916,118.62598 20.900391,108.60986 24.163086,103.39063 L 43.789551,71.995117 C 42.734375,70.047363 41.833008,68.050293 41.094727,66.004883 L 31.240723,81.791992 C 20.705566,98.455566 12.450684,98.155273 0,98.155273 10.299805,90.266113 17.125977,80.160645 20.372559,74.990723 L 39.617676,44.211914 c 1.866699,-9.520996 6.793457,-18.40918 14.146972,-25.016113 -2.467285,-0.941407 -4.528808,-1.92334 -5.770996,-2.864746 12.572754,0 25.015625,-6.388184 31.874512,-6.388184 4.407227,0 7.248047,2.638184 7.248047,6.128418 -0.300293,3.871582 -4.285644,7.815918 -11.663574,7.815918 -1.671875,0 -3.806641,-0.21875 -6.152344,-0.600098 -3.993652,5.567871 -7.224121,10.600098 -7.224121,17.76709 0,13.482422 16.12793,23.993164 32.394043,23.993164 l 2.71875,-0.105469 C 100.41113,54.016601 107.27002,46.85791 112.74902,39.861328 106.18213,37.466797 98.853027,31.225097 98.853027,28.40039 c 0.828125,-0.478515 13.424803,3.466309 14.723633,3.814942 2.37012,-0.45459 3.65234,-2.686523 3.65234,-2.914063 -1.34716,-0.22705 -9.24462,-1.241699 -14.63427,-3.214355 -4.106937,-1.501465 -6.185062,-4.220703 -6.185062,-5.251465 1.323242,-0.210937 6.307132,2.411133 13.652342,2.411133 2.71094,0 3.23047,-0.105469 5.92529,-0.438477 -1.89111,-4.512695 -5.44628,-8.319824 -9.44775,-8.319824 -1.60693,0 -5.12988,0.998535 -8.06787,2.483887 -2.053711,-3.189942 -3.847656,-7.3701174 -3.847656,-9.6591799 0,-2.7109375 2.67041,-5.8681641 10.203126,-5.8681641 2.10986,0 4.07422,0.1787109 5.90088,0.5195313 1.47656,0.2841797 2.71094,0.6171875 4.03369,1.1279297 C 114.59912,1.1040039 115.54883,0 119.07959,0 c 6.20166,0 12.55713,2.0454102 20.34814,2.0454102 2.02149,0 3.39258,-0.081055 4.55469,-0.5761719 -0.5039,1.5581055 -2.69531,3.8388672 -4.6914,5.6977539 1.24023,1.6884766 4.44726,5.7709958 4.44726,12.3701168 0,10.608399 -6.98047,19.357911 -6.98047,30.072266 0,6.371582 4.90235,11.996582 6.3711,15.33252 l 2.71093,0.105468 c 16.27539,0 32.39453,-10.510742 32.39453,-23.993164 0,-7.166992 -3.22265,-12.199219 -7.21679,-17.76709 -2.34571,0.381348 -4.47852,0.600098 -6.15235,0.600098 -7.37695,0 -11.37109,-3.944336 -11.65429,-7.815918 0,-3.490234 2.82422,-6.1284179 7.24023,-6.1284179 6.85742,0 19.30078,6.3881839 31.87305,6.3881839 -1.25,0.941406 -3.30274,1.923339 -5.7793,2.864746 7.36328,6.606933 12.28906,15.495117 14.15625,25.016113 l 19.24414,30.778809 c 3.23828,5.169922 10.07422,15.27539 20.37305,23.164551 -12.45117,0 -20.70508,0.300293 -31.23242,-16.363282 L 199.2168,66.004883 c -0.73047,2.04541 -1.64063,4.04248 -2.6875,5.990234 l 19.61718,31.395513 c 3.27149,5.21923 10.02539,15.23535 20.37305,23.17285 -12.45117,0 -20.70508,0.30078 -31.23242,-16.3628 L 188.38867,83.164063 c -1.25,1.347168 -2.58984,2.645996 -3.99414,3.92041 l 23.83984,38.148927 c 2.95313,4.69922 8.70899,13.28711 17.40235,20.74609 l 2.96094,2.41797 c -6.6543,0 -12.11719,0.0644 -17.36914,-2.41016 -4.57032,-2.13476 -8.96875,-6.21679 -13.86329,-13.96093 L 174.12695,94.835938 c -1.52539,0.96582 -3.09179,1.898925 -4.70703,2.783691 l 28.35938,45.381351 1.88281,2.98632 0,0 z"
             id="path3063"
             inkscape:connector-curvature="0" />

          <g id="g3065" style="fill:#ffffff">
            <path
               d="m 97.334961,165.71191 c -0.681641,-2.49218 -1.347168,-4.31836 -3.952637,-4.31836 -1.331054,0 -1.964355,0.23438 -2.767578,0.53516 -2.808594,7.80859 -13.63623,22.47461 -15.34082,24.72266 -4.675293,-0.76172 -11.208985,-1.58203 -16.500977,-1.58203 -1.233887,0 -2.938476,-0.1211 -2.938476,2.85742 0,1.72851 0.763183,4.74023 1.696289,5.73828 2.329589,-2.75195 6.339355,-3.57227 11.30664,-3.57227 1.931641,0 4.269532,0.67383 5.154297,0.88477 -6.323242,6.41211 -12.289062,11.7207 -12.289062,15.26758 0,1.98828 2.062011,4.61133 3.791015,5.48828 0,-5.23633 5.421875,-12.46875 10.729981,-16.50977 0,0.71485 0.251465,3.45703 0.251465,6.43555 0,9.87891 0.974121,11.83594 4.772949,11.83594 0.689453,0 1.882812,-0.25196 2.32959,-0.52149 -2.045411,-2.34375 -2.905762,-5.45312 -2.905762,-11.32226 0,-1.6875 0.04834,-3.2793 0.04834,-4.65821 0,-2.60546 -0.300293,-4.43945 -0.495118,-5.87695 1.460938,-0.20312 4.756348,-0.67383 7.183594,-0.67383 5.169922,0 8.376465,0.50391 10.713867,2.83203 1.680176,-1.27343 3.555172,-3.67578 3.555172,-5.33203 0,-2.38672 -1.60742,-2.54883 -3.295406,-2.54883 -2.62207,0 -4.772461,1.03907 -14.707519,1.03907 1.956054,-5.59961 7.686523,-13.46485 13.660156,-20.72071 l 0,0 0,0 z"
               id="path3067"
               inkscape:connector-curvature="0"
               style="fill-rule:evenodd" />
            <path
               d="m 156.64453,186.43262 c -9.93555,0 -12.09375,-1.03907 -14.70703,-1.03907 -1.68164,0 -3.29688,0.16211 -3.29688,2.54883 0,1.65625 1.875,4.0586 3.54688,5.33203 2.33789,-2.32812 5.55273,-2.83203 10.72266,-2.83203 2.41797,0 5.72265,0.47071 7.17578,0.67383 -0.19531,1.4375 -0.48828,3.27149 -0.48828,5.87695 0,1.37891 0.0488,2.97071 0.0488,4.65821 0,5.86914 -0.85937,8.97851 -2.90429,11.32226 0.44531,0.26953 1.63867,0.52149 2.32812,0.52149 3.79883,0 4.77344,-1.95703 4.77344,-11.83594 0,-2.97852 0.25195,-5.7207 0.25195,-6.43555 5.3086,4.04102 10.72071,11.27344 10.72071,16.50977 1.73828,-0.87695 3.79882,-3.5 3.79882,-5.48828 0,-3.54688 -5.97265,-8.85547 -12.28906,-15.26758 0.88672,-0.21094 3.22266,-0.88477 5.1543,-0.88477 4.96875,0 8.97851,0.82032 11.30664,3.57227 0.93359,-0.99805 1.68945,-4.00977 1.68945,-5.73828 0,-2.97852 -1.70508,-2.85742 -2.93945,-2.85742 -5.2832,0 -11.82617,0.82031 -16.49219,1.58203 -1.70508,-2.24805 -12.5332,-16.91407 -15.33984,-24.72266 -0.80469,-0.30078 -1.4375,-0.53516 -2.76953,-0.53516 -2.60547,0 -3.26953,1.82618 -3.95118,4.31836 5.97266,7.25586 11.70313,15.1211 13.66016,20.72071 l 0,0 z"
               id="path3069"
               inkscape:connector-curvature="0" />
            <path
               d="m 188.73633,45.640625 c 0,-11.721191 -8.5293,-21.014648 -11.53321,-23.620117 l -2.1582,0.495117 c 3.18945,3.904297 8.82227,10.422363 8.82227,19.066406 0,17.004395 -17.97852,31.769043 -38.49024,32.052735 0.16407,1.753418 0.1543,3.287109 0.1543,4.610351 0,2.435059 -0.16992,4.813477 -0.44531,7.110352 23.27929,-0.40625 43.65039,-19.333985 43.65039,-39.714844 l 0,0 z"
               id="path3071"
               inkscape:connector-curvature="0" />
            <path
               d="m 56.451172,41.582031 c 0,-8.644043 5.625,-15.162109 8.822754,-19.066406 l -2.158692,-0.495117 c -3.003418,2.605469 -11.533691,11.898926 -11.533691,23.620117 0,20.526855 20.672852,39.584961 44.154785,39.739258 -0.251465,-2.231934 -0.397949,-4.610352 -0.397949,-7.134766 0,-1.583008 0.07324,-3.124512 0.210938,-4.594238 -20.762208,0 -39.098145,-14.910156 -39.098145,-32.068848 l 0,0 z"
               id="path3073"
               inkscape:connector-curvature="0" />
            <path
               d="m 119.57471,25.754394 c 1.07177,-2.443359 2.51709,-5.365234 2.51709,-8.587402 0,-8.8959959 -7.37891,-13.1494139 -17.26465,-13.1494139 -5.073244,0 -7.638185,1.6401367 -7.638185,3.2954102 0,1.6396484 1.672363,5.2597657 2.32959,6.3798827 1.826175,-0.803711 5.113765,-1.769531 7.020995,-1.769531 6.77734,0 11.85059,7.589355 13.03516,13.831054 l 0,0 z"
               id="path3075"
               inkscape:connector-curvature="0" />
            <path
               d="m 124.42969,14.375 c 5.76953,1.12793 9.71484,-6.2421875 4.22851,-7.5571289 0.76172,2.4272461 -2.93945,4.1557619 -2.93945,4.1557619 0,0 -1.4043,-3.2788088 0.40625,-5.1376955 -3.34375,-1.6313477 -4.19727,0.3569336 -4.26172,2.4428711 1.31641,1.7534184 2.1836,3.8149414 2.56641,6.0961914 l 0,0 0,0 z"
               id="path3077"
               inkscape:connector-curvature="0"
               style="fill-rule:evenodd" />
          </g>
        </g>

        <g id="flag">
          <rect
             x="265"
             y="0"
             width="10"
             height="75"
             id="rect3080"
             style="fill:#000000" />
          <rect
             x="265"
             y="75"
             width="10"
             height="75"
             id="rect3082"
             style="fill:#ff0000" />
          <rect
             x="265"
             y="150"
             width="10"
             height="75"
             id="rect3084"
             style="fill:#ffcc00" />
        </g>
    </g>

</svg>
