<?xml version="1.0" encoding="UTF-8" standalone="no"?>
<!-- Created with Inkscape (http://www.inkscape.org/) -->

<svg
   xmlns:dc="http://purl.org/dc/elements/1.1/"
   xmlns:cc="http://creativecommons.org/ns#"
   xmlns:rdf="http://www.w3.org/1999/02/22-rdf-syntax-ns#"
   xmlns:svg="http://www.w3.org/2000/svg"
   xmlns="http://www.w3.org/2000/svg"
   xmlns:sodipodi="http://sodipodi.sourceforge.net/DTD/sodipodi-0.dtd"
   xmlns:inkscape="http://www.inkscape.org/namespaces/inkscape"
   version="1.1"
   x="0"
   y="0"
   width="75"
   height="75"
   viewBox="0 0 75 75"
   id="svg2"
   xml:space="preserve"
   inkscape:version="0.48.4 r9939"
   sodipodi:docname="epo-logo-small.svg">

   <sodipodi:namedview
     pagecolor="#ffffff"
     bordercolor="#666666"
     borderopacity="1"
     objecttolerance="10"
     gridtolerance="10"
     guidetolerance="10"
     inkscape:pageopacity="0"
     inkscape:pageshadow="2"
     inkscape:window-width="1930"
     inkscape:window-height="1024"
     id="namedview3145"
     showgrid="false"
     inkscape:zoom="256"
     inkscape:cx="2.1144499"
     inkscape:cy="0.48242188"
     inkscape:window-x="0"
     inkscape:window-y="0"
     inkscape:window-maximized="0"
     inkscape:current-layer="g10" />

    <metadata id="metadata8">
        <rdf:RDF>
            <cc:Work rdf:about="">
                <dc:format>image/svg+xml</dc:format>
                <dc:type rdf:resource="http://purl.org/dc/dcmitype/StillImage" />
                <dc:title></dc:title>
            </cc:Work>
        </rdf:RDF>
    </metadata>

    <defs id="defs6" />

    <g
    id="g10"
    transform="matrix(1.25,0,0,-1.25,338.67707,105.17916)"
    >
        <g
        id="g12"
        transform="matrix(0.0231777,0,0,0.02317793,-270.94166,24.143328)"
        >

            <path
            d="m 0,0 2588.68,0 0,2588.67 L 0,2588.67 0,0 z"
            inkscape:connector-curvature="0"
            id="path16"
            style="fill:#ee2922;fill-opacity:1;fill-rule:nonzero;stroke:none" />

            <path
            d="M 1326.05,1123.94 C 1278.75,997 1190.63,886.031 1094.05,826.91 1026.3,785.398 956.008,772.129 896.121,789.328 c -53.801,15.57 -93.539,48.992 -118.148,99.344 -44.063,90.129 -33.719,229.228 25.968,381.258 88.063,224.71 271.019,372.97 416.349,337.45 50.61,-12.34 91.32,-45.15 117.62,-94.9 49.55,-93.54 45.32,-235.13 -11.86,-388.54 z m -144.87,33.66 c 41,109.27 49.58,208.32 22.39,258.82 -9.77,17.97 -23.38,29.08 -40.65,32.97 -66.37,15.19 -159.67,-81.58 -212.295,-220.25 -40.098,-105.49 -49.082,-198.35 -24.109,-248.788 9.312,-19.024 23.152,-31.223 41.121,-36.59 66.253,-19.571 162.043,76.298 213.543,213.838"
            inkscape:connector-curvature="0"
            id="path154"
            style="fill:#ffffff;fill-opacity:1;fill-rule:nonzero;stroke:none" />

            <path
            d="m 1224.22,1891.61 c 15.85,23.84 36.43,38.73 75.57,36.46 39.17,-2.24 95.72,-40.56 109.27,-50.81 28.18,-21.03 107.12,-81.31 165.78,-219.28 74.35,-174.6 112.96,-436.57 -56.97,-744.871 C 1401.87,702.84 1242.84,578.18 1096.72,528.719 980.121,489.07 869.965,490.371 791.848,501.352 c -67.184,9.539 -111.743,27.48 -134.274,37.578 -29.66,13.281 -54.992,28.808 -73.062,43.8 -53.699,45.122 -54.699,87.27 -37.52,120.168 17.832,34.09 49.844,46.172 80.098,42.043 17.871,-2.48 32.269,-8.453 50.211,-20.179 18.793,-12.41 42.539,-27.903 67.445,-37.121 74.981,-27.68 166.707,-40.891 288.354,-3.371 121.62,37.558 253.37,151.71 342.6,316.52 57.03,105.36 80.46,206.82 90.4,295.41 20.02,178.95 -37.29,308.31 -92.25,381.82 -47.97,63.94 -107.81,88.7 -127.17,104.26 -50.11,40.06 -34.79,90.7 -22.46,109.33"
            inkscape:connector-curvature="0"
            id="path156"
            style="fill:#ffffff;fill-opacity:1;fill-rule:nonzero;stroke:none" />

            <path
            d="m 566.113,423.422 c 21.305,-11.551 53.645,-27.371 96.586,-39.012 65.762,-17.949 155.606,-26.488 254.735,-19.48 219.256,15.718 498.156,140.84 683.666,483.109 188.24,346.951 161.31,684.361 32.17,944.331 -63.94,128.77 -168.16,219.84 -261.99,274.33 -49.69,28.82 -85.86,41.34 -132.98,56.55 -47.31,15.29 -71.09,53.51 -54.31,105.39 10.93,33.51 41.12,55.55 85.09,54.7 17.7,-0.3 49.94,-6.73 83.17,-19.25 47.16,-17.74 86.4,-39.63 122.51,-61.45 135.56,-81.51 258.26,-215.38 337.59,-392.36 127.78,-284.94 143.96,-665.23 -58.13,-1033.319 C 1388.95,112.039 761.66,135.832 526.223,250.711 c -46.91,23.848 -78.883,45.937 -97.086,66.687 -36.399,41.59 -24.641,76.93 -10.832,100.641 12.586,21.281 32.672,34.359 57.105,36.633 11.27,1 22.731,0 34.785,-3.34 10.137,-2.902 20.84,-7.723 29.895,-13.273 4.094,-2.469 13.078,-7.528 26.023,-14.637"
            inkscape:connector-curvature="0"
            id="path158"
            style="fill:#ffffff;fill-opacity:1;fill-rule:nonzero;stroke:none" />

            <path
            d="m 1808.5,679.512 c 1.48,6.808 4.19,15.457 8.52,24.609 3.13,6.899 6.53,13.938 11.59,22.629 10.74,18.559 21.6,38.801 28.84,53.281 83.46,164.981 179.33,446.469 144.9,733.549 -36.19,302.6 -143.08,537.95 -332.97,696.9 -22.67,18.92 -45.16,35.87 -71.62,53.61 -11.2,7.54 -24.14,16.48 -33.29,27.23 -21.51,25.18 -30.45,58.75 -7.86,96.74 32.11,54.02 87.53,49.08 159.93,-2.13 30.35,-21.47 108.34,-78.94 191.94,-181.13 107.48,-131.4 224.15,-341.2 260.35,-664.89 20.55,-183.28 -1.82,-352.12 -37.75,-495.74 -35.87,-143.619 -80.25,-253.869 -119.51,-332.619 -11.93,-23.91 -24.68,-45.25 -35.65,-63.063 -10.12,-16.5 -25.94,-38.41 -44.03,-49.078 -31.07,-18.5 -67.91,-15.16 -93.9,1.82 -19.55,12.692 -38.81,35.622 -29.49,78.282"
            inkscape:connector-curvature="0"
            id="path160"
            style="fill:#ffffff;fill-opacity:1;fill-rule:nonzero;stroke:none" />

        </g>
    </g>
</svg>
