<?xml version="1.0" encoding="UTF-8" standalone="no"?>
<!-- Created with Inkscape (http://www.inkscape.org/) -->

<svg
   xmlns:dc="http://purl.org/dc/elements/1.1/"
   xmlns:cc="http://creativecommons.org/ns#"
   xmlns:rdf="http://www.w3.org/1999/02/22-rdf-syntax-ns#"
   xmlns:svg="http://www.w3.org/2000/svg"
   xmlns="http://www.w3.org/2000/svg"
   xmlns:sodipodi="http://sodipodi.sourceforge.net/DTD/sodipodi-0.dtd"
   xmlns:inkscape="http://www.inkscape.org/namespaces/inkscape"
   version="1.1"
   width="150"
   height="75"
   id="svg2"
   xml:space="preserve"
   inkscape:version="0.48.4 r9939"
   sodipodi:docname="epo-european-patent-organisation-logo.svg"><sodipodi:namedview
     pagecolor="#ffffff"
     bordercolor="#666666"
     borderopacity="1"
     objecttolerance="10"
     gridtolerance="10"
     guidetolerance="10"
     inkscape:pageopacity="0"
     inkscape:pageshadow="2"
     inkscape:window-width="1930"
     inkscape:window-height="1024"
     id="namedview3145"
     showgrid="false"
     inkscape:zoom="256"
     inkscape:cx="2.1144499"
     inkscape:cy="0.48242188"
     inkscape:window-x="0"
     inkscape:window-y="0"
     inkscape:window-maximized="0"
     inkscape:current-layer="g10" /><metadata
     id="metadata8"><rdf:RDF><cc:Work
         rdf:about=""><dc:format>image/svg+xml</dc:format><dc:type
           rdf:resource="http://purl.org/dc/dcmitype/StillImage" /><dc:title></dc:title></cc:Work></rdf:RDF></metadata><defs
     id="defs6" /><g
     transform="matrix(1.25,0,0,-1.25,338.67707,105.17916)"
     id="g10"><g
       transform="matrix(0.0231777,0,0,0.02317793,-270.94166,24.143328)"
       id="g12"><path
         d="m 2588.71,0 2588.68,0 0,2588.67 -2588.68,0 0,-2588.67 z"
         inkscape:connector-curvature="0"
         id="path14"
         style="fill:#424a52;fill-opacity:1;fill-rule:nonzero;stroke:none" /><path
         d="m 0,0 2588.68,0 0,2588.67 L 0,2588.67 0,0 z"
         inkscape:connector-curvature="0"
         id="path16"
         style="fill:#ee2922;fill-opacity:1;fill-rule:nonzero;stroke:none" /><path
         d="m 2812.72,2364.24 0,-192.01 101.77,0 0,27.77 -69.66,0 0,57.82 66.4,0 0,26.64 -66.4,0 0,52.69 69.66,0 0,27.09 -101.77,0"
         inkscape:connector-curvature="0"
         id="path18"
         style="fill:#ffffff;fill-opacity:1;fill-rule:nonzero;stroke:none" /><path
         d="m 3052.1,2314.05 0,-68.42 c 0,-16.37 -5.31,-30.98 -14.47,-40.29 -6.14,-6.04 -13.58,-9.25 -21.54,-9.25 -6.2,0 -10.76,1.52 -13.97,4.68 -4.23,4.23 -6.08,11.27 -6.08,22.23 l 0,91.05 -31.41,0 0,-99 c 0,-15.51 3.9,-27.23 11.53,-34.87 7.04,-7.13 17.41,-10.69 30.88,-10.69 21.21,0 38.53,10.01 47.9,27.56 -1.02,-7.5 -1.41,-17.26 -1.41,-24 l 0,-0.82 30.25,0 0,141.82 -31.68,0"
         inkscape:connector-curvature="0"
         id="path20"
         style="fill:#ffffff;fill-opacity:1;fill-rule:nonzero;stroke:none" /><path
         d="m 3215.47,2316.86 c -27.33,2.64 -39.93,-15.79 -45.68,-29.8 1.59,9.98 2.09,20.02 2.09,26.22 l 0,0.77 -30.3,0 0,-141.82 31.8,0 0,57.77 c 0,25.34 4.92,42.39 14.76,50.63 6.45,5.35 15.1,7.08 25.81,5.15 l 0.8,-0.16 1.45,31.17 -0.73,0.07"
         inkscape:connector-curvature="0"
         id="path22"
         style="fill:#ffffff;fill-opacity:1;fill-rule:nonzero;stroke:none" /><path
         d="m 3331.58,2206.05 c -6.11,-5.98 -13.97,-9.09 -22.73,-9.09 -9.57,0 -17.53,2.85 -23.12,8.58 -7.97,7.92 -11.97,20.98 -11.97,38.84 0,33.65 19.1,45.55 35.39,45.55 9.77,0 17.64,-2.82 23.35,-8.48 7.63,-7.71 11.39,-20.29 11.39,-37.6 0,-16.51 -4.26,-29.56 -12.31,-37.8 z m 26.57,94.15 c -11.08,11 -26.57,16.66 -46.56,16.66 -19.49,0 -36.5,-6.75 -49.22,-19.5 -13.86,-13.78 -21.4,-33.6 -21.4,-56.02 0,-24.46 6.21,-43.05 18.33,-55.2 11.03,-11.09 26.82,-16.65 46.87,-16.65 19.88,0 38.13,7.75 50.87,21.86 12.56,13.91 19.59,33.28 19.59,54.59 0,23.83 -6.22,42.07 -18.48,54.26"
         inkscape:connector-curvature="0"
         id="path24"
         style="fill:#ffffff;fill-opacity:1;fill-rule:nonzero;stroke:none" /><path
         d="m 3502.41,2205.26 c -6.43,-6.44 -15.39,-9.69 -26.7,-9.69 -8.35,0 -15.18,0.78 -21.43,2.55 l 0,42.59 c 0,12.47 3.27,24.74 8.89,33.9 4.49,7.26 12.43,16 25.17,16 6.81,0 12.31,-2.19 16.62,-6.42 6.9,-6.87 10.4,-19.24 10.4,-36.91 0,-19.34 -4.5,-33.48 -12.95,-42.02 z m 29.13,98.34 c -8.75,8.84 -20.68,13.26 -35.28,13.26 -19.84,0 -36.04,-9.66 -44.85,-26.73 1.06,7.73 1.26,23.92 1.26,23.92 l -29.87,0 0,-210.62 31.48,0 0,68.44 c 7.14,-1.25 12.92,-1.57 20.49,-1.57 23.01,0 41.91,7.29 54.66,21.32 12.62,13.64 19.22,33.93 19.22,58.48 0,24.05 -5.71,42.2 -17.11,53.5"
         inkscape:connector-curvature="0"
         id="path26"
         style="fill:#ffffff;fill-opacity:1;fill-rule:nonzero;stroke:none" /><path
         d="m 3656.2,2203.99 c -6,-6.13 -13.64,-9.33 -21.84,-9.33 -5.78,0 -10.8,1.79 -13.94,5.01 -2.87,2.88 -4.38,6.87 -4.38,11.46 0,16.24 17.43,24.56 52.08,24.65 l 0,-2.09 c 0,-11.2 -4.49,-22.35 -11.92,-29.7 z m 44.43,-30.94 c -0.49,11.16 -0.8,25.46 -0.8,38.39 l 0,57.33 c 0,16.03 -3.67,27.1 -11.39,34.89 -8.93,8.87 -23.45,13.2 -44.16,13.2 -16.42,0 -34.07,-3.32 -49.55,-9.33 l -0.59,-0.19 2.97,-27.41 1.09,0.55 c 10.79,6.69 27.31,11.23 41.29,11.23 10.71,0 18.13,-2.21 22.63,-6.71 4.09,-4.12 6,-10.18 6,-19.1 l 0,-8.29 c -31.66,-0.11 -56.68,-7.76 -70.32,-21.51 -8.25,-8.16 -12.36,-18.26 -12.36,-30.05 0,-10.48 3.37,-19.42 9.68,-25.76 7.05,-7.04 17.58,-10.8 30.3,-10.8 19.97,0 37.49,10.07 45.65,26.08 -0.6,-5.94 -1.02,-13.19 -1.02,-22.52 l 0,-0.82 30.58,0 0,0.82"
         inkscape:connector-curvature="0"
         id="path28"
         style="fill:#ffffff;fill-opacity:1;fill-rule:nonzero;stroke:none" /><path
         d="m 3773.53,2333.44 c -5.62,0 -10.74,2.13 -14.47,5.99 -3.81,3.7 -5.82,8.52 -5.82,13.72 0,5.08 2.01,9.98 5.82,13.63 3.73,3.9 8.85,6 14.47,6 5.37,0 10.37,-2.1 14.26,-5.9 3.67,-3.64 5.59,-8.59 5.59,-13.73 0,-10.92 -8.85,-19.71 -19.85,-19.71 z m -15.99,-19.39 31.58,0 0,-141.82 -31.58,0 0,141.82"
         inkscape:connector-curvature="0"
         id="path30"
         style="fill:#ffffff;fill-opacity:1;fill-rule:nonzero;stroke:none" /><path
         d="m 3894.4,2255.81 c -12.86,4.53 -24.17,8.46 -24.17,19.65 0,10.76 8.57,16.84 24.17,16.84 8.87,0 18.74,-1.52 27.1,-3.98 l 0.92,-0.31 0.71,26.25 -0.5,0.08 c -6.94,1.09 -17.36,2.52 -26.29,2.52 -20.63,0 -36.81,-5.43 -47.07,-15.79 -7.57,-7.61 -11.77,-17.43 -11.77,-28.38 0,-28.11 20.13,-34.59 37.63,-40.33 12.95,-4.18 24.05,-7.84 24.05,-19.5 0,-4.13 -1.52,-7.74 -4.37,-10.66 -4.83,-4.7 -12.74,-7.24 -22.52,-7.24 -12.95,0 -24.58,2.82 -30.26,4.42 l -0.92,0.32 -0.96,-27.27 0.75,-0.17 c 9.34,-1.8 19.96,-2.77 29.73,-2.77 36.9,0 61.71,18.53 61.71,46.21 0,26.93 -20.12,33.9 -37.94,40.11"
         inkscape:connector-curvature="0"
         id="path32"
         style="fill:#ffffff;fill-opacity:1;fill-rule:nonzero;stroke:none" /><path
         d="m 4069.22,2204.64 -0.97,-0.45 c -8.04,-4.19 -19.55,-6.72 -30.28,-6.72 -10.77,0 -19.23,3.04 -25.24,9.07 -7.55,7.37 -11.09,19.2 -11.09,35.41 0,14.68 3.32,26.75 9.43,34.86 6.56,8.55 16.13,12.9 28.48,12.9 8.96,0 18.44,-1.81 28.02,-5.31 l 0.79,-0.33 3.27,27.79 -0.5,0.16 c -9.15,2.74 -19.79,4.26 -30.78,4.26 -21.4,0 -38.71,-6.28 -51.07,-18.79 -13.66,-13.42 -20.81,-33.89 -20.81,-59 0,-23.44 5.91,-41.1 17.38,-52.49 10.57,-10.56 25.97,-15.97 45.85,-15.97 13.44,0 28.29,2.68 39.82,7.14 l 0.34,0.19 -2.64,27.28"
         inkscape:connector-curvature="0"
         id="path34"
         style="fill:#ffffff;fill-opacity:1;fill-rule:nonzero;stroke:none" /><path
         d="m 4224.52,2306.21 c -6.93,7.07 -17.44,10.65 -30.88,10.65 -20.81,0 -37.61,-9.63 -46.87,-26.5 1.72,8.77 1.81,20.33 1.81,25.21 l 0,64.25 -31.57,0 0,-207.59 31.57,0 0,68.23 c 0,28.4 15.6,49.75 36.01,49.75 6.28,0 10.87,-1.49 14.04,-4.7 4.06,-4.23 6.12,-11.2 6.12,-22.12 l 0,-91.16 31.28,0 0,99 c 0,15.57 -3.87,27.3 -11.51,34.98"
         inkscape:connector-curvature="0"
         id="path36"
         style="fill:#ffffff;fill-opacity:1;fill-rule:nonzero;stroke:none" /><path
         d="m 4345.92,2293.07 c 8.15,0 15.18,-2.55 19.88,-7.56 5.09,-5.34 7.82,-12.99 7.63,-22.32 l -57.87,0 c 2.71,18.5 14.37,29.88 30.36,29.88 z m 42.77,8.61 c -10.17,10.08 -24.05,15.18 -41.66,15.18 -17.54,0 -32.93,-5.91 -44.02,-17.17 -13.48,-13.37 -20.8,-33.79 -20.8,-57.49 0,-24.81 6.1,-43.48 18.25,-55.57 11.4,-11.39 28.34,-17.14 50.21,-17.14 17.57,0 34.88,3.22 48.95,9.11 l 0.5,0.16 -3.04,25.58 -1.03,-0.44 c -11.63,-5.69 -26.39,-8.94 -40.45,-8.94 -13.38,0 -23.67,3.45 -30.31,10.3 -7.21,7.54 -10.65,19.4 -10.56,35.4 l 89.34,0 0.11,0.64 c 0.66,5.35 0.95,10.1 0.95,14.14 0,19.49 -5.71,35.44 -16.44,46.24"
         inkscape:connector-curvature="0"
         id="path38"
         style="fill:#ffffff;fill-opacity:1;fill-rule:nonzero;stroke:none" /><path
         d="m 4499.7,2255.81 c -13.05,4.53 -24.34,8.46 -24.34,19.65 0,10.76 8.56,16.84 24.04,16.84 9.06,0 18.83,-1.52 27.23,-3.98 l 1.03,-0.31 0.91,26.25 -0.83,0.08 c -6.94,1.09 -17.23,2.52 -26.32,2.52 -20.44,0 -36.7,-5.43 -47.07,-15.79 -7.52,-7.61 -11.39,-17.43 -11.39,-28.38 0,-28.11 19.66,-34.59 37.38,-40.33 12.86,-4.18 24.08,-7.84 24.08,-19.5 0,-4.13 -1.57,-7.74 -4.42,-10.66 -4.79,-4.7 -12.74,-7.24 -22.62,-7.24 -12.86,0 -24.44,2.82 -30.16,4.42 l -0.92,0.32 -1,-27.27 0.7,-0.17 c 9.48,-1.8 19.99,-2.77 29.75,-2.77 36.81,0 61.78,18.53 61.78,46.21 0,26.93 -20.19,33.9 -37.83,40.11"
         inkscape:connector-curvature="0"
         id="path40"
         style="fill:#ffffff;fill-opacity:1;fill-rule:nonzero;stroke:none" /><path
         d="m 2857.97,1961.41 c -4.29,0 -8.63,0.46 -12.83,0.96 l 0,68.38 c 4.78,0.54 9.4,0.58 14.99,0.58 14.04,0 24.5,-3.39 31.05,-10.04 5.71,-5.72 8.65,-13.71 8.65,-23.94 0,-21.64 -16.51,-35.71 -41.86,-35.94 z m 60.09,77.86 c -12.11,12.26 -31.37,18.64 -55.69,18.64 -17.84,0 -34.55,-0.6 -48.82,-1.15 l -0.72,-0.07 0,-191.91 32.31,0 0,70.17 c 4.59,-0.39 9.4,-0.51 13.24,-0.51 21.77,0 40.43,6.48 54.2,18.65 13.22,11.88 20.44,28.44 20.44,46.74 0,16.24 -4.95,29.47 -14.96,39.44"
         inkscape:connector-curvature="0"
         id="path42"
         style="fill:#ffffff;fill-opacity:1;fill-rule:nonzero;stroke:none" /><path
         d="m 3026.74,1896.36 c -5.92,-6.05 -13.59,-9.15 -21.71,-9.15 -6.04,0 -10.93,1.68 -14.07,4.89 -2.83,2.95 -4.52,6.87 -4.52,11.52 0,16.19 17.67,24.52 52.18,24.71 l 0,-2.12 c 0,-11.17 -4.36,-22.43 -11.88,-29.85 z m 44.32,-30.77 c -0.3,11.05 -0.72,25.44 -0.72,38.28 l 0,57.26 c 0,16.07 -3.57,27.17 -11.39,34.98 -8.85,8.91 -23.36,13.26 -44.05,13.26 -16.51,0 -34.15,-3.39 -49.72,-9.42 l -0.41,-0.18 2.84,-27.4 1.02,0.61 c 10.81,6.74 27.52,11.25 41.46,11.25 10.73,0 18.16,-2.25 22.53,-6.78 4.09,-4.13 6,-10.09 6,-19.12 l 0,-8.25 c -31.58,-0.21 -56.55,-7.67 -70.32,-21.48 -8.12,-8.22 -12.31,-18.3 -12.31,-30.08 0,-10.5 3.36,-19.43 9.8,-25.79 6.91,-7.04 17.41,-10.79 30.17,-10.79 19.94,0 37.41,10.17 45.67,26.08 -0.73,-5.93 -0.93,-13.2 -0.93,-22.45 l 0,-0.79 30.56,0 -0.2,0.81"
         inkscape:connector-curvature="0"
         id="path44"
         style="fill:#ffffff;fill-opacity:1;fill-rule:nonzero;stroke:none" /><path
         d="m 3162.49,2006.57 0,52.93 -31.5,-8.48 0,-44.45 -26.8,0 0,-24.93 26.8,0 0,-75.8 c 0,-17.52 2.96,-28.2 9.4,-34.69 5.98,-6.06 15.69,-8.91 30.25,-8.91 8.37,0 18.53,1.13 28.12,3.1 l 0.63,0.15 0,26.42 -1.04,-0.3 c -5.28,-1.39 -12.01,-2.17 -18.03,-2.17 -6.31,0 -10.2,1.11 -12.75,3.63 -3.57,3.5 -4.88,9.93 -4.88,22.11 l 0,66.46 36.7,0 0,24.93 -36.9,0"
         inkscape:connector-curvature="0"
         id="path46"
         style="fill:#ffffff;fill-opacity:1;fill-rule:nonzero;stroke:none" /><path
         d="m 3298.34,1985.56 c 8.13,0 14.96,-2.64 19.88,-7.62 5.09,-5.22 7.64,-12.91 7.64,-22.2 l -58,0 c 2.77,18.39 14.37,29.82 30.48,29.82 z m 42.62,8.62 c -9.98,10.09 -24.06,15.19 -41.62,15.19 -17.61,0 -32.8,-5.99 -44,-17.19 -13.35,-13.28 -20.68,-33.73 -20.68,-57.51 0,-24.84 6.11,-43.54 18.2,-55.58 11.24,-11.33 28.37,-17.15 50.27,-17.15 17.55,0 34.98,3.2 48.92,9.09 l 0.5,0.24 -3.05,25.57 -0.92,-0.48 c -11.82,-5.72 -26.59,-8.95 -40.76,-8.95 -13.24,0 -23.44,3.52 -30.15,10.37 -7.34,7.45 -10.74,19.4 -10.5,35.22 l 89.38,0 0.09,0.75 c 0.5,5.34 0.83,10.09 0.83,14.21 0,19.4 -5.71,35.48 -16.51,46.22"
         inkscape:connector-curvature="0"
         id="path48"
         style="fill:#ffffff;fill-opacity:1;fill-rule:nonzero;stroke:none" /><path
         d="m 3512.38,1998.66 c -7.14,7.13 -17.54,10.71 -30.97,10.71 -21.19,0 -38.45,-10.01 -47.8,-27.53 0.98,7.38 1.42,17.18 1.42,23.95 l 0,0.78 -30.28,0 0,-141.79 31.72,0 0,68.49 c 0,13.5 3.54,25.98 10.18,35.18 6.74,9.16 15.79,14.37 25.66,14.37 6.35,0 11.03,-1.66 14.08,-4.88 4.3,-4.06 6.11,-11.12 6.11,-22.14 l 0,-91.02 31.32,0 0,99.03 c 0,15.49 -3.81,27.2 -11.44,34.85"
         inkscape:connector-curvature="0"
         id="path50"
         style="fill:#ffffff;fill-opacity:1;fill-rule:nonzero;stroke:none" /><path
         d="m 3616.24,2006.57 0,52.93 -31.39,-8.48 0,-44.45 -26.92,0 0,-24.93 26.92,0 0,-75.8 c 0,-17.52 2.94,-28.2 9.49,-34.69 6.11,-6.06 15.68,-8.91 30.25,-8.91 8.15,0 18.47,1.13 28.04,3.1 l 0.59,0.15 0,26.42 -0.98,-0.3 c -5.33,-1.39 -12.05,-2.17 -18.08,-2.17 -6.17,0 -10.07,1.11 -12.71,3.63 -3.6,3.5 -4.88,9.93 -4.88,22.11 l 0,66.46 36.65,0 0,24.93 -36.98,0"
         inkscape:connector-curvature="0"
         id="path52"
         style="fill:#ffffff;fill-opacity:1;fill-rule:nonzero;stroke:none" /><path
         d="m 3760.04,1896.36 c -6.11,-6.05 -13.53,-9.15 -21.8,-9.15 -5.81,0 -10.69,1.68 -14.07,4.89 -2.82,2.95 -4.26,6.87 -4.26,11.52 0,16.19 17.51,24.52 52.1,24.71 l 0,-2.12 c 0,-11.17 -4.5,-22.43 -11.97,-29.85 z m 44.46,-30.77 c -0.53,11.05 -0.92,25.44 -0.92,38.28 l 0,57.26 c 0,16.07 -3.56,27.17 -11.32,34.98 -8.86,8.91 -23.32,13.26 -44.13,13.26 -16.42,0 -33.92,-3.39 -49.62,-9.42 l -0.53,-0.18 2.94,-27.4 1.13,0.61 c 10.73,6.74 27.34,11.25 41.28,11.25 10.7,0 18.14,-2.25 22.66,-6.78 3.94,-4.13 6.02,-10.09 6.02,-19.12 l 0,-8.25 c -31.64,-0.21 -56.58,-7.67 -70.26,-21.48 -8.36,-8.22 -12.53,-18.3 -12.53,-30.08 0,-10.5 3.45,-19.43 9.78,-25.79 7.14,-7.04 17.43,-10.79 30.17,-10.79 20.11,0 37.62,10.17 45.68,26.08 -0.54,-5.93 -0.93,-13.2 -0.93,-22.45 l 0,-0.79 30.58,0 0,0.81"
         inkscape:connector-curvature="0"
         id="path54"
         style="fill:#ffffff;fill-opacity:1;fill-rule:nonzero;stroke:none" /><path
         d="m 4054.42,1998.66 c -7.14,7.13 -17.44,10.71 -30.88,10.71 -23.98,0 -39.77,-15.03 -46.62,-28.64 -2.3,10.04 -10.56,28.64 -39.14,28.64 -20.53,0 -37.88,-10.52 -46.97,-28.3 1.22,7.71 1.72,25.5 1.72,25.5 l -30.25,0 0,-141.79 31.6,0 0,67.81 c 0,13.94 3.78,26.73 10.7,35.99 6.55,9.14 15.29,14.24 24.36,14.24 6,0 10.4,-1.66 13.57,-4.77 4.3,-4.17 6.11,-11.23 6.11,-22.82 l 0,-90.45 31.09,0 0,67.81 c 0,31.05 18.33,50.23 35.43,50.23 5.83,0 10.25,-1.66 13.38,-4.71 4.19,-4.17 6.22,-11.62 6.22,-23.18 l 0,-90.15 31.36,0 0,97.54 c 0,16.3 -4.01,28.6 -11.68,36.34"
         inkscape:connector-curvature="0"
         id="path56"
         style="fill:#ffffff;fill-opacity:1;fill-rule:nonzero;stroke:none" /><path
         d="m 4159.06,2006.57 0,52.93 -31.37,-8.48 0,-44.45 -26.89,0 0,-24.93 26.89,0 0,-75.8 c 0,-17.52 2.84,-28.2 9.26,-34.69 6.12,-6.06 15.79,-8.91 30.28,-8.91 8.48,0 18.55,1.13 28.23,3.1 l 0.53,0.15 0,26.42 -0.92,-0.3 c -5.42,-1.39 -12.16,-2.17 -18.14,-2.17 -6.3,0 -10.11,1.11 -12.66,3.63 -3.54,3.5 -4.98,9.93 -4.98,22.11 l 0,66.46 36.7,0 0,24.93 -36.93,0"
         inkscape:connector-curvature="0"
         id="path58"
         style="fill:#ffffff;fill-opacity:1;fill-rule:nonzero;stroke:none" /><path
         d="m 2812.72,1567.06 0,-191.99 102.1,0 0,27.75 -69.68,0 0,57.81 66.22,0 0,26.49 -66.22,0 0,52.71 69.68,0 0,27.23 -102.1,0"
         inkscape:connector-curvature="0"
         id="path60"
         style="fill:#ffffff;fill-opacity:1;fill-rule:nonzero;stroke:none" /><path
         d="m 3052.3,1516.8 0,-68.47 c 0,-16.24 -5.32,-30.91 -14.48,-40.15 -6.1,-6.15 -13.46,-9.36 -21.39,-9.36 -6.34,0 -10.9,1.61 -14.07,4.8 -4.17,4.15 -6.21,11.16 -6.21,22.19 l 0,90.99 -31.28,0 0,-98.89 c 0,-15.62 3.87,-27.32 11.4,-35.01 7.13,-7.03 17.53,-10.67 30.98,-10.67 21.39,0 38.54,9.98 47.89,27.51 -1.03,-7.35 -1.53,-17.14 -1.53,-23.95 l 0,-0.72 30.39,0 0,141.73 -31.7,0"
         inkscape:connector-curvature="0"
         id="path62"
         style="fill:#ffffff;fill-opacity:1;fill-rule:nonzero;stroke:none" /><path
         d="m 3215.66,1519.61 c -27.38,2.61 -40.02,-15.68 -45.63,-29.75 1.35,9.9 1.94,19.98 1.94,26.21 l 0,0.73 -30.25,0 0,-141.73 31.66,0 0,57.75 c 0,25.36 4.92,42.33 14.76,50.52 6.56,5.36 15.1,7.13 25.81,5.16 l 0.8,-0.16 1.55,31.24 -0.64,0.03"
         inkscape:connector-curvature="0"
         id="path64"
         style="fill:#ffffff;fill-opacity:1;fill-rule:nonzero;stroke:none" /><path
         d="m 3331.67,1408.83 c -6.01,-6.01 -13.74,-9.12 -22.63,-9.12 -9.7,0 -17.53,2.94 -23.11,8.66 -7.97,7.8 -11.84,20.9 -11.84,38.91 0,33.48 18.97,45.49 35.29,45.49 9.73,0 17.6,-2.91 23.32,-8.57 7.67,-7.66 11.49,-20.27 11.49,-37.56 0,-16.54 -4.37,-29.64 -12.52,-37.81 z m 26.79,94.07 c -11.19,11.1 -26.79,16.71 -46.48,16.71 -19.51,0 -36.7,-6.74 -49.51,-19.46 -13.74,-13.83 -21.3,-33.68 -21.3,-56.05 0,-24.4 6.24,-43.06 18.32,-55.26 11.14,-11 26.74,-16.61 46.68,-16.61 20.22,0 38.32,7.76 51.11,21.84 12.6,13.97 19.45,33.19 19.45,54.54 0,23.91 -6.1,42.14 -18.27,54.29"
         inkscape:connector-curvature="0"
         id="path66"
         style="fill:#ffffff;fill-opacity:1;fill-rule:nonzero;stroke:none" /><path
         d="m 3502.41,1408.07 c -6.35,-6.53 -15.39,-9.78 -26.7,-9.78 -8.35,0 -15.08,0.83 -21.19,2.61 l 0,42.65 c 0,12.32 3.23,24.74 8.65,33.89 4.49,7.26 12.54,15.82 25.26,15.82 6.8,0 12.42,-2.05 16.59,-6.35 6.84,-6.81 10.43,-19.19 10.43,-36.87 0,-19.25 -4.38,-33.45 -13.04,-41.97 z m 29.13,98.25 c -8.75,8.87 -20.68,13.29 -35.17,13.29 -19.95,0 -36.04,-9.73 -44.86,-26.76 1.16,7.74 1.25,23.95 1.25,23.95 l -29.96,0 0,-210.63 31.72,0 0,68.47 c 6.9,-1.29 12.84,-1.52 20.38,-1.52 23.01,0 41.98,7.34 54.73,21.14 12.52,13.78 19.02,34.02 19.02,58.58 0,24.11 -5.71,42.19 -17.11,53.48"
         inkscape:connector-curvature="0"
         id="path68"
         style="fill:#ffffff;fill-opacity:1;fill-rule:nonzero;stroke:none" /><path
         d="m 3647.65,1495.83 c 8.13,0 14.96,-2.6 19.88,-7.53 5.09,-5.32 7.64,-13.01 7.64,-22.3 l -58.01,0 c 2.76,18.47 14.37,29.83 30.49,29.83 z m 42.59,8.56 c -9.99,10.15 -24.03,15.22 -41.61,15.22 -17.51,0 -32.8,-5.95 -44.03,-17.11 -13.3,-13.34 -20.58,-33.79 -20.58,-57.6 0,-24.78 6.06,-43.47 18.04,-55.49 11.44,-11.43 28.34,-17.18 50.37,-17.18 17.4,0 34.86,3.23 48.82,9.09 l 0.5,0.17 -3.14,25.66 -0.83,-0.47 c -11.63,-5.78 -26.42,-8.87 -40.69,-8.87 -13.22,0 -23.43,3.42 -30.12,10.26 -7.24,7.49 -10.84,19.33 -10.53,35.28 l 89.31,0 0.2,0.69 c 0.58,5.35 0.8,10.1 0.8,14.14 0,19.46 -5.72,35.48 -16.51,46.21"
         inkscape:connector-curvature="0"
         id="path70"
         style="fill:#ffffff;fill-opacity:1;fill-rule:nonzero;stroke:none" /><path
         d="m 3815.6,1406.68 c -6.15,-6.05 -13.57,-9.21 -21.94,-9.21 -5.87,0 -10.76,1.65 -14.05,4.95 -2.84,2.91 -4.37,6.8 -4.37,11.5 0,16.24 17.64,24.51 52.19,24.57 l 0,-1.94 c 0,-11.23 -4.39,-22.44 -11.83,-29.87 z m 44.34,-30.81 c -0.6,11.07 -0.8,25.47 -0.8,38.34 l 0,57.24 c 0,16.06 -3.81,27.16 -11.43,34.97 -8.89,8.83 -23.35,13.19 -44.13,13.19 -16.38,0 -34.06,-3.25 -49.65,-9.29 l -0.48,-0.22 2.94,-27.4 1.02,0.58 c 10.79,6.64 27.4,11.1 41.39,11.1 10.65,0 18.12,-2.11 22.63,-6.61 4.06,-4.1 6,-10.13 6,-19.09 l 0,-8.3 c -31.67,-0.13 -56.58,-7.68 -70.46,-21.49 -8.11,-8.23 -12.31,-18.36 -12.31,-30.06 0,-10.5 3.47,-19.42 9.76,-25.79 7.05,-7.08 17.59,-10.81 30.2,-10.81 20.08,0 37.5,10.12 45.65,26.1 -0.6,-5.94 -0.93,-13.28 -0.93,-22.54 l 0,-0.72 30.6,0 0,0.8"
         inkscape:connector-curvature="0"
         id="path72"
         style="fill:#ffffff;fill-opacity:1;fill-rule:nonzero;stroke:none" /><path
         d="m 4024.76,1508.93 c -7.13,7.07 -17.54,10.68 -30.99,10.68 -21.3,0 -38.51,-9.94 -47.93,-27.54 0.97,7.46 1.55,17.19 1.55,24 l 0,0.73 -30.37,0 0,-141.73 31.69,0 0,68.48 c 0,13.51 3.68,25.98 10.31,35.14 6.7,9.21 15.79,14.33 25.56,14.33 6.33,0 10.92,-1.52 14.18,-4.72 4.2,-4.2 6.11,-11.16 6.11,-22.19 l 0,-91.04 31.28,0 0,98.97 c 0,15.51 -3.86,27.27 -11.39,34.89"
         inkscape:connector-curvature="0"
         id="path74"
         style="fill:#ffffff;fill-opacity:1;fill-rule:nonzero;stroke:none" /><path
         d="m 2857.88,1164.08 c -4.36,0 -8.65,0.49 -12.85,1.05 l 0,68.31 c 4.78,0.52 9.39,0.52 15.01,0.52 14.02,0 24.39,-3.4 31.14,-9.97 5.51,-5.72 8.46,-13.81 8.46,-24.02 0,-21.43 -16.53,-35.64 -41.76,-35.89 z m 60.09,77.91 c -12.13,12.12 -31.39,18.6 -55.6,18.6 -18.03,0 -34.66,-0.56 -48.92,-1.06 l -0.73,0 0,-192.1 32.31,0 0,70.25 c 4.59,-0.56 9.51,-0.56 13.35,-0.56 21.77,0 40.32,6.51 54.09,18.56 13.22,12 20.55,28.5 20.55,46.9 0,16.19 -4.95,29.37 -15.05,39.41"
         inkscape:connector-curvature="0"
         id="path76"
         style="fill:#ffffff;fill-opacity:1;fill-rule:nonzero;stroke:none" /><path
         d="m 3026.74,1099.13 c -5.92,-6.11 -13.59,-9.27 -21.71,-9.27 -6.04,0 -10.93,1.64 -14.07,4.98 -2.83,2.85 -4.52,6.88 -4.52,11.5 0,16.18 17.67,24.4 52.18,24.64 l 0,-2.19 c 0,-11.08 -4.36,-22.25 -11.88,-29.66 z m 44.32,-30.97 c -0.3,11.22 -0.72,25.49 -0.72,38.46 l 0,57.18 c 0,16.12 -3.57,27.3 -11.39,35.09 -8.85,8.86 -23.36,13.09 -44.05,13.09 -16.51,0 -34.15,-3.25 -49.72,-9.32 l -0.41,-0.2 2.84,-27.43 1.02,0.7 c 10.81,6.58 27.52,11.14 41.46,11.14 10.73,0 18.05,-2.29 22.53,-6.72 4.09,-4.06 6,-10.16 6,-19.11 l 0,-8.26 c -31.58,-0.14 -56.55,-7.78 -70.32,-21.47 -8.12,-8.19 -12.31,-18.44 -12.31,-30.14 0,-10.42 3.36,-19.41 9.8,-25.75 6.91,-7.04 17.41,-10.84 30.17,-10.84 19.94,0 37.41,10.15 45.67,26.17 -0.73,-6.01 -0.93,-13.22 -0.93,-22.59 l 0,-0.73 30.56,0 -0.2,0.73"
         inkscape:connector-curvature="0"
         id="path78"
         style="fill:#ffffff;fill-opacity:1;fill-rule:nonzero;stroke:none" /><path
         d="m 3162.92,1209.19 0,53.01 -31.51,-8.54 0,-44.47 -26.72,0 0,-24.93 26.72,0 0,-75.71 c 0,-17.44 2.95,-28.31 9.59,-34.79 5.96,-6.07 15.57,-8.79 30.14,-8.79 8.26,0 18.58,1 28.01,2.98 l 0.53,0.21 0,26.42 -0.83,-0.3 c -5.37,-1.32 -12.08,-2.21 -18.12,-2.21 -6.22,0 -10.09,1.18 -12.66,3.7 -3.54,3.49 -4.95,9.91 -4.95,22.13 l 0,66.36 36.56,0 0,24.93 -36.76,0"
         inkscape:connector-curvature="0"
         id="path80"
         style="fill:#ffffff;fill-opacity:1;fill-rule:nonzero;stroke:none" /><path
         d="m 3297.81,1188.22 c 8.36,0 15.1,-2.54 20.02,-7.57 4.98,-5.34 7.64,-12.97 7.53,-22.26 l -57.9,0 c 2.78,18.44 14.27,29.83 30.35,29.83 z m 42.84,8.66 c -10.2,10.04 -24.14,15.1 -41.62,15.1 -17.59,0 -32.89,-5.83 -44.08,-17.12 -13.38,-13.3 -20.71,-33.76 -20.71,-57.46 0,-24.82 6.23,-43.52 18.22,-55.7 11.43,-11.31 28.24,-17.12 50.27,-17.12 17.51,0 34.86,3.3 48.93,9.06 l 0.49,0.32 -3.15,25.53 -0.91,-0.36 c -11.72,-5.68 -26.43,-9.02 -40.56,-9.02 -13.34,0 -23.59,3.48 -30.25,10.28 -7.25,7.56 -10.84,19.42 -10.54,35.4 l 89.4,0 0.11,0.7 c 0.6,5.33 0.79,10.04 0.79,14.18 0,19.32 -5.6,35.4 -16.39,46.21"
         inkscape:connector-curvature="0"
         id="path82"
         style="fill:#ffffff;fill-opacity:1;fill-rule:nonzero;stroke:none" /><path
         d="m 3512.16,1201.33 c -7.03,7.07 -17.42,10.65 -30.98,10.65 -21.21,0 -38.43,-9.93 -47.67,-27.49 0.88,7.47 1.32,17.17 1.32,23.94 l 0,0.76 -30.3,0 0,-141.76 31.75,0 0,68.5 c 0,13.52 3.53,25.94 10.28,35.28 6.73,9.15 15.69,14.27 25.56,14.27 6.3,0 10.94,-1.66 14.18,-4.83 4.18,-4.09 6,-11.15 6,-22.12 l 0,-91.1 31.41,0 0,98.95 c 0,15.6 -3.9,27.29 -11.55,34.95"
         inkscape:connector-curvature="0"
         id="path84"
         style="fill:#ffffff;fill-opacity:1;fill-rule:nonzero;stroke:none" /><path
         d="m 3616.57,1209.19 0,53.01 -31.33,-8.54 0,-44.47 -26.77,0 0,-24.93 26.77,0 0,-75.71 c 0,-17.44 2.95,-28.31 9.49,-34.79 6.02,-6.07 15.68,-8.79 30.28,-8.79 8.13,0 18.38,1 28.02,2.98 l 0.52,0.21 0,26.42 -0.82,-0.3 c -5.32,-1.32 -12.26,-2.21 -18.37,-2.21 -6.07,0 -9.97,1.18 -12.5,3.7 -3.49,3.49 -4.9,9.91 -4.9,22.13 l 0,66.36 36.59,0 0,24.93 -36.98,0"
         inkscape:connector-curvature="0"
         id="path86"
         style="fill:#ffffff;fill-opacity:1;fill-rule:nonzero;stroke:none" /><path
         d="m 3893.76,1108.78 c -9.88,-9.77 -22.83,-15.26 -36.66,-15.26 -14.77,0 -26.93,4.59 -36.08,13.68 -12.06,12.08 -18.43,32.1 -18.43,57.87 0,21.13 5.78,38.94 16.79,51.3 9.87,11.18 23.44,17.3 38.44,17.3 15.16,0 27.38,-4.66 36.58,-13.98 12.11,-11.88 18.45,-31.5 18.45,-56.9 0,-22.83 -6.75,-41.57 -19.09,-54.01 z m 28.05,130.93 c -14.77,14.71 -35.98,22.49 -61.34,22.49 -24.78,0 -47.51,-8.95 -64.01,-25.53 -18.37,-18.4 -28.16,-44.46 -28.16,-75.3 0,-32.25 8.76,-57.94 25.27,-74.55 14.7,-14.71 35.38,-22.24 61.28,-22.24 25.5,0 48.62,9.54 65.24,26.83 17.6,18.33 26.97,44.13 26.97,74.47 0,32.15 -8.55,57.05 -25.25,73.83"
         inkscape:connector-curvature="0"
         id="path88"
         style="fill:#ffffff;fill-opacity:1;fill-rule:nonzero;stroke:none" /><path
         d="m 4187.33,1274.36 c -7.36,1.72 -15.18,2.58 -23.06,2.58 -18.03,0 -31.91,-4.65 -41.05,-13.84 -9.71,-9.61 -14.57,-24.44 -14.57,-43.94 l 0,-9.97 -25.2,0 0,-24.93 25.2,0 0,-116.83 31.58,0 0,116.83 35.15,0 0,24.93 -35.15,0 0,10.5 c 0,21.6 7.87,31.16 25.47,31.16 6.64,0 13.18,-0.91 19,-2.67 l 0.89,-0.28 2.24,26.4 -0.5,0.06"
         inkscape:connector-curvature="0"
         id="path90"
         style="fill:#ffffff;fill-opacity:1;fill-rule:nonzero;stroke:none" /><path
         d="m 4077.05,1274.36 c -7.33,1.72 -14.96,2.58 -23.07,2.58 -18.02,0 -31.9,-4.65 -41.05,-13.84 -9.58,-9.61 -14.37,-24.44 -14.37,-43.94 l 0,-9.97 -25.46,0 0,-24.93 25.46,0 0,-116.83 31.37,0 0,116.83 35.28,0 0,24.93 -35.28,0 0,10.5 c 0,21.6 7.83,31.16 25.52,31.16 6.64,0 13.2,-0.91 19.02,-2.67 l 0.73,-0.28 2.57,26.4 -0.72,0.06"
         inkscape:connector-curvature="0"
         id="path92"
         style="fill:#ffffff;fill-opacity:1;fill-rule:nonzero;stroke:none" /><path
         d="m 4231.96,1228.62 c 11,0 19.94,8.85 19.94,19.62 0,5.25 -2.02,10.03 -5.67,13.87 -3.87,3.76 -8.85,5.81 -14.27,5.81 -5.61,0 -10.7,-2.16 -14.57,-6.08 -3.6,-3.62 -5.51,-8.49 -5.51,-13.6 0,-5.15 1.91,-9.99 5.51,-13.68 3.87,-3.83 8.96,-5.94 14.57,-5.94"
         inkscape:connector-curvature="0"
         id="path94"
         style="fill:#ffffff;fill-opacity:1;fill-rule:nonzero;stroke:none" /><path
         d="m 4215.98,1067.43 31.6719,0 0,141.719 -31.6719,0 0,-141.719 z"
         inkscape:connector-curvature="0"
         id="path96"
         style="fill:#ffffff;fill-opacity:1;fill-rule:nonzero;stroke:none" /><path
         d="m 4394.31,1099.95 -0.9,-0.69 c -8.06,-4.09 -19.55,-6.53 -30.28,-6.53 -10.77,0 -19.23,3 -25.37,8.99 -7.24,7.33 -11.03,19.19 -11.03,35.27 0,14.73 3.29,26.75 9.51,35.08 6.6,8.52 16.12,12.81 28.4,12.81 8.98,0 18.37,-1.82 27.94,-5.35 l 0.93,-0.33 3.27,27.88 -0.64,0.09 c -9.18,2.81 -19.74,4.34 -30.67,4.34 -21.48,0 -38.62,-6.39 -51.13,-18.69 -13.58,-13.62 -20.72,-34.07 -20.72,-59.07 0,-23.51 5.81,-41.12 17.32,-52.65 10.53,-10.57 26.02,-15.93 45.88,-15.93 13.43,0 28.34,2.71 39.73,7.14 l 0.53,0.13 -2.77,27.51"
         inkscape:connector-curvature="0"
         id="path98"
         style="fill:#ffffff;fill-opacity:1;fill-rule:nonzero;stroke:none" /><path
         d="m 4493.07,1188.22 c 8.15,0 15.09,-2.54 19.91,-7.57 5.06,-5.34 7.73,-12.97 7.63,-22.26 l -57.99,0 c 2.87,18.44 14.46,29.83 30.45,29.83 z m 42.74,8.66 c -9.98,10.04 -24.05,15.1 -41.52,15.1 -17.71,0 -33,-5.83 -44.14,-17.12 -13.3,-13.3 -20.67,-33.76 -20.67,-57.46 0,-24.82 6.15,-43.52 18.13,-55.7 11.43,-11.31 28.34,-17.12 50.38,-17.12 17.5,0 34.84,3.3 48.72,9.06 l 0.58,0.32 -3.03,25.53 -0.92,-0.36 c -11.73,-5.68 -26.44,-9.02 -40.6,-9.02 -13.31,0 -23.62,3.48 -30.25,10.28 -7.3,7.56 -10.81,19.42 -10.51,35.4 l 89.41,0 0,0.7 c 0.6,5.33 0.93,10.04 0.93,14.18 0,19.32 -5.75,35.4 -16.51,46.21"
         inkscape:connector-curvature="0"
         id="path100"
         style="fill:#ffffff;fill-opacity:1;fill-rule:nonzero;stroke:none" /><path
         d="m 3955.96,701.922 0,-68.481 c 0,-16.281 -5.29,-30.89 -14.38,-40.152 -6.2,-6.129 -13.54,-9.34 -21.49,-9.34 -6.36,0 -10.92,1.66 -14.07,4.789 -4.07,4.231 -6.12,11.172 -6.12,22.141 l 0,91.043 -31.41,0 0,-98.981 c 0,-15.519 3.99,-27.281 11.65,-34.871 7.14,-7.129 17.42,-10.699 30.99,-10.699 21.21,0 38.3,10.039 47.67,27.551 -0.8,-7.473 -1.33,-17.184 -1.33,-24.063 l 0,-0.687 30.29,0 0,141.75 -31.8,0"
         inkscape:connector-curvature="0"
         id="path102"
         style="fill:#ffffff;fill-opacity:1;fill-rule:nonzero;stroke:none" /><path
         d="m 4119.33,704.82 c -27.29,2.578 -39.94,-15.929 -45.76,-29.871 1.52,9.852 2.02,20.02 2.02,26.27 l 0,0.703 -30.15,0 0,-141.75 31.61,0 0,57.738 c 0,25.36 5.09,42.34 14.85,50.5 6.41,5.52 15.21,7.129 25.81,5.219 l 0.92,-0.129 1.31,31.121 -0.61,0.199"
         inkscape:connector-curvature="0"
         id="path104"
         style="fill:#ffffff;fill-opacity:1;fill-rule:nonzero;stroke:none" /><path
         d="m 4235.42,593.898 c -6.01,-5.949 -13.83,-9.058 -22.72,-9.058 -9.57,0 -17.44,2.922 -23.16,8.621 -7.82,7.91 -11.79,20.91 -11.79,38.961 0,33.578 18.93,45.437 35.35,45.437 9.71,0 17.53,-2.91 23.32,-8.66 7.56,-7.621 11.33,-20.129 11.33,-37.488 0,-16.57 -4.21,-29.59 -12.33,-37.813 z m 26.63,94.133 c -10.93,11.039 -26.63,16.789 -46.38,16.789 -19.68,0 -36.7,-6.808 -49.35,-19.519 -13.86,-13.852 -21.44,-33.692 -21.44,-56.09 0,-24.441 6.25,-42.973 18.37,-55.16 11.11,-11.141 26.79,-16.68 46.81,-16.68 19.88,0 38.11,7.801 50.86,21.848 12.53,13.961 19.43,33.269 19.43,54.582 0,23.847 -6.08,42.039 -18.3,54.23"
         inkscape:connector-curvature="0"
         id="path106"
         style="fill:#ffffff;fill-opacity:1;fill-rule:nonzero;stroke:none" /><path
         d="m 4406.26,593.18 c -6.64,-6.52 -15.6,-9.852 -26.83,-9.852 -8.35,0 -15.18,0.922 -21.3,2.723 l 0,42.527 c 0,12.5 3.28,24.641 8.89,33.992 4.26,7.16 12.22,15.891 25.17,15.891 6.74,0 12.32,-2.18 16.61,-6.281 6.83,-6.93 10.27,-19.352 10.27,-36.989 0,-19.363 -4.35,-33.492 -12.81,-42.011 z m 28.93,98.371 c -8.77,8.769 -20.58,13.269 -35.07,13.269 -19.99,0 -36.17,-9.851 -44.83,-26.832 1,7.703 1.22,23.934 1.22,23.934 l -29.98,0 0,-210.613 31.6,0 0,68.472 c 7.04,-1.332 12.95,-1.621 20.39,-1.621 23.15,0 42.11,7.371 54.73,21.34 12.55,13.68 19.05,33.879 19.05,58.391 0,24.179 -5.67,42.257 -17.11,53.66"
         inkscape:connector-curvature="0"
         id="path108"
         style="fill:#ffffff;fill-opacity:1;fill-rule:nonzero;stroke:none" /><path
         d="m 4710.61,680.898 c 8.15,0 14.96,-2.546 19.74,-7.527 5.23,-5.351 7.75,-13.019 7.75,-22.25 l -57.99,0 c 2.74,18.488 14.37,29.777 30.5,29.777 z m 42.67,8.711 c -10.17,9.981 -24.15,15.211 -41.56,15.211 -17.63,0 -32.92,-6.09 -44.25,-17.25 -13.25,-13.34 -20.68,-33.691 -20.68,-57.468 0,-24.832 6.31,-43.524 18.23,-55.661 11.44,-11.363 28.34,-17.07 50.34,-17.07 17.57,0 34.98,3.238 48.85,9.051 l 0.5,0.219 -2.97,25.64 -0.94,-0.5 c -11.68,-5.672 -26.55,-8.941 -40.62,-8.941 -13.47,0 -23.54,3.461 -30.29,10.34 -7.23,7.449 -10.8,19.41 -10.47,35.261 l 89.46,0 0,0.661 c 0.51,5.418 0.91,10.238 0.91,14.168 0,19.531 -5.78,35.468 -16.51,46.339"
         inkscape:connector-curvature="0"
         id="path110"
         style="fill:#ffffff;fill-opacity:1;fill-rule:nonzero;stroke:none" /><path
         d="m 4928.47,694.09 c -7.14,7.031 -17.6,10.73 -31.18,10.73 -21.1,0 -38.32,-10.039 -47.69,-27.679 0.93,7.597 1.32,17.308 1.32,24.078 l 0,0.703 -30.17,0 0,-141.75 31.58,0 0,68.406 c 0,13.543 3.81,25.961 10.45,35.203 6.51,9.258 15.78,14.379 25.67,14.379 6.2,0 10.93,-1.519 14.07,-4.789 3.95,-4.172 6.01,-11.16 6.01,-22.172 l 0,-91.027 31.37,0 0,98.988 c 0,15.461 -3.86,27.328 -11.43,34.93"
         inkscape:connector-curvature="0"
         id="path112"
         style="fill:#ffffff;fill-opacity:1;fill-rule:nonzero;stroke:none" /><path
         d="m 2926.85,601.43 c -9.91,-9.84 -22.87,-15.192 -36.61,-15.192 -14.96,0 -26.94,4.621 -36.09,13.742 -12.06,12.079 -18.5,32.098 -18.5,57.801 0,21.27 5.81,39.008 16.71,51.379 10.01,11.25 23.53,17.371 38.52,17.371 15.07,0 27.48,-4.73 36.69,-14.051 11.89,-11.949 18.34,-31.691 18.34,-56.941 0,-22.859 -6.64,-41.559 -19.06,-54.109 z m 28.01,130.992 c -14.9,14.769 -36.11,22.668 -61.28,22.668 -24.8,0 -47.53,-9.149 -64.04,-25.629 -18.43,-18.391 -28.1,-44.441 -28.1,-75.359 0,-32.231 8.66,-58.012 25.26,-74.473 14.57,-14.731 35.27,-22.168 61.16,-22.168 25.55,0 48.67,9.461 65.28,26.648 17.71,18.442 26.92,44.141 26.92,74.532 0,32.211 -8.46,56.937 -25.2,73.781"
         inkscape:connector-curvature="0"
         id="path114"
         style="fill:#ffffff;fill-opacity:1;fill-rule:nonzero;stroke:none" /><path
         d="m 3220.36,767.18 c -7.44,1.679 -15.07,2.601 -23.12,2.601 -18.03,0 -31.91,-4.711 -40.96,-13.972 -9.61,-9.481 -14.46,-24.239 -14.46,-43.848 l 0,-9.961 -25.31,0 0,-24.941 25.31,0 0,-116.778 31.47,0 0,116.778 35.28,0 0,24.941 -35.28,0 0,10.48 c 0,21.598 7.73,31.192 25.47,31.192 6.73,0 13.14,-0.934 18.99,-2.711 l 0.89,-0.383 2.25,26.492 -0.53,0.11"
         inkscape:connector-curvature="0"
         id="path116"
         style="fill:#ffffff;fill-opacity:1;fill-rule:nonzero;stroke:none" /><path
         d="m 3110,767.18 c -7.14,1.679 -14.99,2.601 -22.92,2.601 -18.07,0 -31.94,-4.711 -41.09,-13.972 -9.57,-9.481 -14.5,-24.239 -14.5,-43.848 l 0,-9.961 -25.27,0 0,-24.941 25.27,0 0,-116.778 31.52,0 0,116.778 35.26,0 0,24.941 -35.26,0 0,10.48 c 0,21.598 7.75,31.192 25.58,31.192 6.56,0 13.13,-0.934 18.83,-2.711 l 0.83,-0.383 2.49,26.492 -0.74,0.11"
         inkscape:connector-curvature="0"
         id="path118"
         style="fill:#ffffff;fill-opacity:1;fill-rule:nonzero;stroke:none" /><path
         d="m 3264.91,721.391 c 11.2,0 20.1,8.871 20.1,19.629 0,5.218 -2.16,10.171 -5.83,13.8 -3.68,3.809 -8.65,5.891 -14.27,5.891 -5.42,0 -10.56,-2.191 -14.35,-5.981 -3.68,-3.73 -5.73,-8.558 -5.73,-13.71 0,-5.2 2.05,-9.899 5.73,-13.739 3.79,-3.769 8.93,-5.89 14.35,-5.89"
         inkscape:connector-curvature="0"
         id="path120"
         style="fill:#ffffff;fill-opacity:1;fill-rule:nonzero;stroke:none" /><path
         d="m 3249.12,560.281 31.5781,0 0,141.719 -31.5781,0 0,-141.719 z"
         inkscape:connector-curvature="0"
         id="path122"
         style="fill:#ffffff;fill-opacity:1;fill-rule:nonzero;stroke:none" /><path
         d="m 3427.46,592.75 -0.99,-0.672 c -8.06,-4.129 -19.56,-6.668 -30.18,-6.668 -10.87,0 -19.46,3.102 -25.47,9.02 -7.33,7.39 -11.14,19.242 -11.14,35.48 0,14.649 3.4,26.738 9.7,34.871 6.45,8.52 16.13,12.891 28.32,12.891 9.02,0 18.36,-1.891 28.04,-5.363 l 0.83,-0.321 3.37,27.801 -0.63,0.191 c -9.18,2.79 -19.86,4.309 -30.78,4.309 -21.37,0 -38.66,-6.309 -51.03,-18.769 -13.68,-13.598 -20.81,-34.008 -20.81,-59.09 0,-23.352 5.81,-41.02 17.2,-52.551 10.53,-10.438 26.13,-15.848 45.88,-15.848 13.65,0 28.54,2.641 39.78,7.141 l 0.59,0.117 -2.68,27.461"
         inkscape:connector-curvature="0"
         id="path124"
         style="fill:#ffffff;fill-opacity:1;fill-rule:nonzero;stroke:none" /><path
         d="m 3526.12,681.07 c 8.16,0 15.1,-2.679 19.89,-7.64 5.08,-5.25 7.87,-12.879 7.65,-22.309 l -57.88,0 c 2.76,18.578 14.36,29.949 30.34,29.949 z m 42.84,8.59 c -10.21,9.93 -24.15,15.16 -41.71,15.16 -17.7,0 -32.9,-5.949 -44.03,-17.179 -13.35,-13.321 -20.78,-33.762 -20.78,-57.539 0,-24.75 6.13,-43.473 18.24,-55.563 11.42,-11.359 28.32,-17.078 50.28,-17.078 17.58,0 34.81,3.211 48.86,9.019 l 0.55,0.27 -3.05,25.531 -1.01,-0.422 c -11.64,-5.75 -26.44,-8.859 -40.48,-8.859 -13.34,0 -23.67,3.359 -30.25,10.238 -7.23,7.473 -10.84,19.352 -10.54,35.34 l 89.42,0 0,0.633 c 0.59,5.367 0.89,10.129 0.89,14.16 0,19.488 -5.72,35.481 -16.39,46.289"
         inkscape:connector-curvature="0"
         id="path126"
         style="fill:#ffffff;fill-opacity:1;fill-rule:nonzero;stroke:none" /><path
         d="m 3760.98,681.07 c 8.15,0 14.99,-2.679 19.88,-7.64 5.09,-5.25 7.76,-12.879 7.66,-22.309 l -58.04,0 c 2.75,18.578 14.4,29.949 30.5,29.949 z m 42.6,8.59 c -10.01,9.93 -24.08,15.16 -41.58,15.16 -17.54,0 -32.94,-5.949 -44.07,-17.179 -13.31,-13.321 -20.64,-33.762 -20.64,-57.539 0,-24.75 6.21,-43.473 18.23,-55.563 11.34,-11.359 28.25,-17.078 50.24,-17.078 17.54,0 34.85,3.211 48.81,9.019 l 0.5,0.27 -3.03,25.531 -0.79,-0.422 c -11.76,-5.75 -26.63,-8.859 -40.7,-8.859 -13.38,0 -23.65,3.359 -30.29,10.238 -7.33,7.473 -10.76,19.352 -10.47,35.34 l 89.39,0 0.09,0.633 c 0.63,5.367 0.83,10.129 0.83,14.16 0,19.488 -5.62,35.481 -16.52,46.289"
         inkscape:connector-curvature="0"
         id="path128"
         style="fill:#ffffff;fill-opacity:1;fill-rule:nonzero;stroke:none" /><path
         d="m 4551.39,680.898 c 8.37,0 15.2,-2.546 20.05,-7.527 4.94,-5.351 7.53,-13.019 7.53,-22.25 l -57.95,0 c 2.73,18.488 14.49,29.777 30.37,29.777 z m 42.78,8.711 c -10.08,9.981 -24.04,15.211 -41.46,15.211 -17.73,0 -33.02,-6.09 -44.25,-17.25 -13.35,-13.34 -20.68,-33.691 -20.68,-57.468 0,-24.832 6.2,-43.524 18.36,-55.661 11.2,-11.363 28.24,-17.07 50.11,-17.07 17.68,0 34.98,3.238 48.95,9.051 l 0.41,0.219 -2.98,25.64 -0.89,-0.5 c -11.73,-5.672 -26.5,-8.941 -40.68,-8.941 -13.35,0 -23.53,3.461 -30.17,10.34 -7.24,7.449 -10.78,19.41 -10.48,35.261 l 89.35,0 0,0.661 c 0.66,5.418 0.96,10.238 0.96,14.168 0,19.531 -5.81,35.468 -16.55,46.339"
         inkscape:connector-curvature="0"
         id="path130"
         style="fill:#ffffff;fill-opacity:1;fill-rule:nonzero;stroke:none" /><path
         d="m 4543.04,720.5 47.89,28.449 -14.36,21.852 -45.49,-31.973 11.96,-18.328"
         inkscape:connector-curvature="0"
         id="path132"
         style="fill:#ffffff;fill-opacity:1;fill-rule:nonzero;stroke:none" /><path
         d="m 2881.01,284.602 c -5.51,-5.614 -12.04,-8.321 -19.23,-8.321 -6.94,0 -12.66,2.098 -16.95,6.328 -6.74,6.942 -10.26,19.301 -10.26,36.942 0,17.84 3.73,31.308 10.96,39.988 6.74,7.77 16.25,11.731 28.64,11.731 7,0 14.16,-0.86 21.46,-2.321 l 0,-42.918 c 0,-16.461 -5.58,-32.359 -14.62,-41.429 z m 14.62,175.687 0,-64.519 -1.41,0.082 c -6.64,0.5 -12.82,0.918 -18.94,0.918 -21.35,0 -39.4,-6.86 -52.38,-19.75 -14.24,-14.27 -21.67,-35.11 -21.67,-60.309 0,-23.652 5.88,-42.223 17.22,-53.512 8.87,-8.789 20.71,-13.32 35.07,-13.32 19.82,0 36.44,10.012 45.09,26.699 -1.13,-7.707 -1.52,-16.976 -1.52,-23.09 l 0,-0.726 30.06,0 0,207.527 -31.52,0"
         inkscape:connector-curvature="0"
         id="path134"
         style="fill:#ffffff;fill-opacity:1;fill-rule:nonzero;stroke:none" /><path
         d="m 3036.9,373.621 c 8.17,0 15.1,-2.711 19.89,-7.742 5.09,-5.25 7.77,-12.867 7.58,-22.16 l -57.82,0 c 2.74,18.429 14.27,29.902 30.35,29.902 z m 42.62,8.649 c -10.01,9.98 -23.97,15.101 -41.48,15.101 -17.61,0 -32.82,-5.941 -44.13,-17.312 -13.25,-13.278 -20.69,-33.7 -20.69,-57.348 0,-24.813 6.09,-43.66 18.24,-55.691 11.52,-11.282 28.33,-17.141 50.27,-17.141 17.5,0 34.81,3.25 48.69,9.09 l 0.62,0.332 -2.97,25.5 -0.99,-0.391 c -11.62,-5.699 -26.42,-9.019 -40.6,-9.019 -13.36,0 -23.54,3.461 -30.15,10.328 -7.37,7.562 -10.8,19.32 -10.5,35.472 l 89.32,0 0.08,0.637 c 0.5,5.313 0.81,10.043 0.81,14.16 0,19.434 -5.62,35.391 -16.52,46.282"
         inkscape:connector-curvature="0"
         id="path136"
         style="fill:#ffffff;fill-opacity:1;fill-rule:nonzero;stroke:none" /><path
         d="m 3690.65,373.621 c 8.16,0 15.1,-2.711 19.86,-7.742 5.12,-5.25 7.79,-12.867 7.65,-22.16 l -57.87,0 c 2.62,18.429 14.38,29.902 30.36,29.902 z m 42.67,8.649 c -10.07,9.98 -24.03,15.101 -41.44,15.101 -17.74,0 -32.92,-5.941 -44.23,-17.312 -13.38,-13.278 -20.62,-33.7 -20.62,-57.348 0,-24.813 6.11,-43.66 18.08,-55.691 11.48,-11.282 28.34,-17.141 50.33,-17.141 17.44,0 34.84,3.25 48.81,9.09 l 0.54,0.332 -2.97,25.5 -0.92,-0.391 c -11.73,-5.699 -26.5,-9.019 -40.57,-9.019 -13.48,0 -23.55,3.461 -30.39,10.328 -7.23,7.562 -10.67,19.32 -10.37,35.472 l 89.35,0 0,0.637 c 0.66,5.313 0.96,10.043 0.96,14.16 0,19.434 -5.72,35.391 -16.56,46.282"
         inkscape:connector-curvature="0"
         id="path138"
         style="fill:#ffffff;fill-opacity:1;fill-rule:nonzero;stroke:none" /><path
         d="m 3996.72,373.621 c 8.24,0 14.99,-2.711 19.77,-7.742 5.2,-5.25 7.88,-12.867 7.77,-22.16 l -58.01,0 c 2.75,18.429 14.38,29.902 30.47,29.902 z m 42.72,8.649 c -10.23,9.98 -24.06,15.101 -41.61,15.101 -17.6,0 -32.89,-5.941 -44.12,-17.312 -13.35,-13.278 -20.58,-33.7 -20.58,-57.348 0,-24.813 5.98,-43.66 18.24,-55.691 11.29,-11.282 28.12,-17.141 50.08,-17.141 17.69,0 34.9,3.25 48.86,9.09 l 0.55,0.332 -3.05,25.5 -0.93,-0.391 c -11.62,-5.699 -26.41,-9.019 -40.48,-9.019 -13.32,0 -23.66,3.461 -30.36,10.328 -7.28,7.562 -10.82,19.32 -10.41,35.472 l 89.32,0 0,0.637 c 0.69,5.313 0.89,10.043 0.89,14.16 0,19.434 -5.62,35.391 -16.4,46.282"
         inkscape:connector-curvature="0"
         id="path140"
         style="fill:#ffffff;fill-opacity:1;fill-rule:nonzero;stroke:none" /><path
         d="m 3191.33,336.289 c -13.03,4.531 -24.25,8.43 -24.25,19.691 0,10.731 8.56,16.75 24.14,16.75 8.9,0 18.77,-1.519 27.12,-3.898 l 0.94,-0.332 0.89,26.16 -0.61,0.168 c -7.03,1.16 -17.33,2.543 -26.39,2.543 -20.47,0 -36.79,-5.551 -47.19,-15.781 -7.47,-7.668 -11.4,-17.461 -11.4,-28.418 0,-28.141 19.85,-34.613 37.39,-40.313 12.94,-4.218 24.14,-7.82 24.14,-19.578 0,-4.172 -1.52,-7.761 -4.48,-10.672 -4.67,-4.621 -12.62,-7.218 -22.54,-7.218 -12.81,0 -24.44,2.8 -30.28,4.589 l -0.8,0.2 -1.02,-27.16 0.72,-0.258 c 9.35,-1.864 19.99,-2.883 29.66,-2.883 37.01,0 61.78,18.601 61.78,46.312 0,26.821 -20.08,33.899 -37.82,40.098"
         inkscape:connector-curvature="0"
         id="path142"
         style="fill:#ffffff;fill-opacity:1;fill-rule:nonzero;stroke:none" /><path
         d="m 4271.09,336.289 c -13.13,4.531 -24.33,8.43 -24.33,19.691 0,10.731 8.54,16.75 24.14,16.75 8.95,0 18.77,-1.519 27.09,-3.898 l 0.95,-0.332 0.88,26.16 -0.58,0.168 c -6.94,1.16 -17.34,2.543 -26.52,2.543 -20.25,0 -36.69,-5.551 -46.98,-15.781 -7.56,-7.668 -11.48,-17.461 -11.48,-28.418 0,-28.141 19.84,-34.613 37.39,-40.313 12.91,-4.218 24.14,-7.82 24.14,-19.578 0,-4.172 -1.52,-7.761 -4.5,-10.672 -4.59,-4.621 -12.65,-7.218 -22.42,-7.218 -12.95,0 -24.54,2.8 -30.35,4.589 l -0.82,0.2 -0.94,-27.16 0.63,-0.258 c 9.38,-1.864 19.99,-2.883 29.76,-2.883 36.89,0 61.77,18.601 61.77,46.312 0,26.821 -20.12,33.899 -37.83,40.098"
         inkscape:connector-curvature="0"
         id="path144"
         style="fill:#ffffff;fill-opacity:1;fill-rule:nonzero;stroke:none" /><path
         d="m 3433.08,285.719 c -6.51,-6.508 -15.49,-9.77 -26.83,-9.77 -8.45,0 -15.38,0.821 -21.16,2.629 l 0,43.051 c 0,12.051 3.16,24.312 8.79,33.383 4.34,7.136 12.37,15.789 25.13,15.789 6.93,0 12.54,-2.211 16.71,-6.36 6.84,-6.839 10.21,-19.132 10.21,-36.812 0,-19.188 -4.2,-33.258 -12.85,-41.91 z m 29.07,98.429 c -8.76,8.793 -20.62,13.223 -35.19,13.223 -19.35,0 -35.34,-9.492 -43.62,-25.57 1.14,7.32 1.75,16.39 1.75,23.121 l 0,65.367 -31.69,0 0,-203.699 0.5,-0.192 c 16.12,-4.168 31.19,-5.886 50.13,-5.886 46.6,0 75.22,30.687 75.22,80.136 0,24.032 -5.62,42.082 -17.1,53.5"
         inkscape:connector-curvature="0"
         id="path146"
         style="fill:#ffffff;fill-opacity:1;fill-rule:nonzero;stroke:none" /><path
         d="m 3600.04,397.371 c -27.25,2.57 -39.83,-15.781 -45.44,-29.73 1.28,9.781 1.91,19.879 1.91,26.16 l 0,0.719 -30.28,0 0,-141.758 31.7,0 0,57.808 c 0,25.328 4.99,42.391 14.77,50.559 6.43,5.332 15.09,7.121 25.83,5.191 l 0.79,-0.191 1.43,31.109 -0.71,0.133"
         inkscape:connector-curvature="0"
         id="path148"
         style="fill:#ffffff;fill-opacity:1;fill-rule:nonzero;stroke:none" /><path
         d="m 3878.3,394.52 -27.01,-75.829 c -3.18,-9.121 -5.83,-18.711 -7.64,-25.511 -2.34,8.531 -5.32,17.75 -8.45,26.57 l -26.44,74.77 -34.84,0 53.12,-141.758 31.66,0 53.52,141.758 -33.92,0"
         inkscape:connector-curvature="0"
         id="path150"
         style="fill:#ffffff;fill-opacity:1;fill-rule:nonzero;stroke:none" /><path
         d="m 4140.54,394.52 0,53.019 -31.5,-8.551 0,-44.468 -26.81,0 0,-24.938 26.81,0 0,-75.711 c 0,-17.5 2.94,-28.199 9.59,-34.769 5.81,-6.082 15.58,-8.922 30.06,-8.922 8.36,0 18.54,1.218 28.14,3.172 l 0.6,0.058 0,26.442 -0.99,-0.282 c -5.23,-1.379 -12.06,-2.23 -18.08,-2.23 -6.34,0 -10.17,1.121 -12.71,3.73 -3.61,3.532 -4.92,9.871 -4.92,22.149 l 0,66.363 36.7,0 0,24.938 -36.89,0"
         inkscape:connector-curvature="0"
         id="path152"
         style="fill:#ffffff;fill-opacity:1;fill-rule:nonzero;stroke:none" /><path
         d="M 1326.05,1123.94 C 1278.75,997 1190.63,886.031 1094.05,826.91 1026.3,785.398 956.008,772.129 896.121,789.328 c -53.801,15.57 -93.539,48.992 -118.148,99.344 -44.063,90.129 -33.719,229.228 25.968,381.258 88.063,224.71 271.019,372.97 416.349,337.45 50.61,-12.34 91.32,-45.15 117.62,-94.9 49.55,-93.54 45.32,-235.13 -11.86,-388.54 z m -144.87,33.66 c 41,109.27 49.58,208.32 22.39,258.82 -9.77,17.97 -23.38,29.08 -40.65,32.97 -66.37,15.19 -159.67,-81.58 -212.295,-220.25 -40.098,-105.49 -49.082,-198.35 -24.109,-248.788 9.312,-19.024 23.152,-31.223 41.121,-36.59 66.253,-19.571 162.043,76.298 213.543,213.838"
         inkscape:connector-curvature="0"
         id="path154"
         style="fill:#ffffff;fill-opacity:1;fill-rule:nonzero;stroke:none" /><path
         d="m 1224.22,1891.61 c 15.85,23.84 36.43,38.73 75.57,36.46 39.17,-2.24 95.72,-40.56 109.27,-50.81 28.18,-21.03 107.12,-81.31 165.78,-219.28 74.35,-174.6 112.96,-436.57 -56.97,-744.871 C 1401.87,702.84 1242.84,578.18 1096.72,528.719 980.121,489.07 869.965,490.371 791.848,501.352 c -67.184,9.539 -111.743,27.48 -134.274,37.578 -29.66,13.281 -54.992,28.808 -73.062,43.8 -53.699,45.122 -54.699,87.27 -37.52,120.168 17.832,34.09 49.844,46.172 80.098,42.043 17.871,-2.48 32.269,-8.453 50.211,-20.179 18.793,-12.41 42.539,-27.903 67.445,-37.121 74.981,-27.68 166.707,-40.891 288.354,-3.371 121.62,37.558 253.37,151.71 342.6,316.52 57.03,105.36 80.46,206.82 90.4,295.41 20.02,178.95 -37.29,308.31 -92.25,381.82 -47.97,63.94 -107.81,88.7 -127.17,104.26 -50.11,40.06 -34.79,90.7 -22.46,109.33"
         inkscape:connector-curvature="0"
         id="path156"
         style="fill:#ffffff;fill-opacity:1;fill-rule:nonzero;stroke:none" /><path
         d="m 566.113,423.422 c 21.305,-11.551 53.645,-27.371 96.586,-39.012 65.762,-17.949 155.606,-26.488 254.735,-19.48 219.256,15.718 498.156,140.84 683.666,483.109 188.24,346.951 161.31,684.361 32.17,944.331 -63.94,128.77 -168.16,219.84 -261.99,274.33 -49.69,28.82 -85.86,41.34 -132.98,56.55 -47.31,15.29 -71.09,53.51 -54.31,105.39 10.93,33.51 41.12,55.55 85.09,54.7 17.7,-0.3 49.94,-6.73 83.17,-19.25 47.16,-17.74 86.4,-39.63 122.51,-61.45 135.56,-81.51 258.26,-215.38 337.59,-392.36 127.78,-284.94 143.96,-665.23 -58.13,-1033.319 C 1388.95,112.039 761.66,135.832 526.223,250.711 c -46.91,23.848 -78.883,45.937 -97.086,66.687 -36.399,41.59 -24.641,76.93 -10.832,100.641 12.586,21.281 32.672,34.359 57.105,36.633 11.27,1 22.731,0 34.785,-3.34 10.137,-2.902 20.84,-7.723 29.895,-13.273 4.094,-2.469 13.078,-7.528 26.023,-14.637"
         inkscape:connector-curvature="0"
         id="path158"
         style="fill:#ffffff;fill-opacity:1;fill-rule:nonzero;stroke:none" /><path
         d="m 1808.5,679.512 c 1.48,6.808 4.19,15.457 8.52,24.609 3.13,6.899 6.53,13.938 11.59,22.629 10.74,18.559 21.6,38.801 28.84,53.281 83.46,164.981 179.33,446.469 144.9,733.549 -36.19,302.6 -143.08,537.95 -332.97,696.9 -22.67,18.92 -45.16,35.87 -71.62,53.61 -11.2,7.54 -24.14,16.48 -33.29,27.23 -21.51,25.18 -30.45,58.75 -7.86,96.74 32.11,54.02 87.53,49.08 159.93,-2.13 30.35,-21.47 108.34,-78.94 191.94,-181.13 107.48,-131.4 224.15,-341.2 260.35,-664.89 20.55,-183.28 -1.82,-352.12 -37.75,-495.74 -35.87,-143.619 -80.25,-253.869 -119.51,-332.619 -11.93,-23.91 -24.68,-45.25 -35.65,-63.063 -10.12,-16.5 -25.94,-38.41 -44.03,-49.078 -31.07,-18.5 -67.91,-15.16 -93.9,1.82 -19.55,12.692 -38.81,35.622 -29.49,78.282"
         inkscape:connector-curvature="0"
         id="path160"
         style="fill:#ffffff;fill-opacity:1;fill-rule:nonzero;stroke:none" /></g></g></svg>